<svg width="35" height="35" viewBox="0 0 35 35" fill="none" xmlns="http://www.w3.org/2000/svg">
<g clip-path="url(#clip0)">
<path d="M34.4804 12.6509C34.0182 12.0711 33.3249 11.7384 32.578 11.7384H25.8375L22.1823 3.36899C21.9557 2.85007 21.3513 2.61293 20.8323 2.83968C20.3133 3.06629 20.0763 3.67079 20.303 4.18978L23.5996 11.7385H11.4004L14.697 4.18978C14.9236 3.67079 14.6867 3.06636 14.1677 2.83968C13.6488 2.61293 13.0443 2.84993 12.8177 3.36899L9.16255 11.7385H2.42205C1.67515 11.7385 0.981782 12.0711 0.519604 12.651C0.0659027 13.2203 -0.101509 13.9521 0.0602973 14.6591L3.6599 30.3817C3.91125 31.4796 4.88244 32.2463 6.02164 32.2463H28.9784C30.1176 32.2463 31.0888 31.4796 31.3401 30.3817L34.9397 14.659C35.1015 13.952 34.9341 13.2202 34.4804 12.6509ZM28.9784 30.1955H6.02164C5.84753 30.1955 5.69502 30.0813 5.659 29.9239L2.0594 14.2014C2.03117 14.078 2.07854 13.9852 2.12338 13.9291C2.16495 13.8768 2.25908 13.7893 2.42205 13.7893H8.26698L7.99839 14.4043C7.77178 14.9233 8.00871 15.5277 8.5277 15.7544C8.66127 15.8128 8.80045 15.8404 8.93751 15.8404C9.33277 15.8404 9.70943 15.6105 9.87773 15.2252L10.5048 13.7894H24.4954L25.1224 15.2252C25.2907 15.6106 25.6674 15.8404 26.0626 15.8404C26.1996 15.8404 26.3389 15.8128 26.4724 15.7544C26.9914 15.5278 27.2284 14.9233 27.0017 14.4043L26.7332 13.7893H32.5781C32.7411 13.7893 32.8352 13.8768 32.8768 13.9291C32.9215 13.9853 32.969 14.0781 32.9407 14.2013L29.3411 29.924C29.305 30.0813 29.1525 30.1955 28.9784 30.1955Z" fill="white"/>
</g>
<defs>
<clipPath id="clip0">
<rect width="35" height="35" fill="white"/>
</clipPath>
</defs>
</svg>
