<svg width="17" height="17" viewBox="0 0 17 17" fill="none" xmlns="http://www.w3.org/2000/svg">
<circle cx="8.5" cy="8.5" r="8" stroke="#DBDBDB"/>
<path d="M8.20909 13C8.14848 13 8.09697 12.9805 8.05455 12.9415C8.01818 12.896 8 12.8408 8 12.7758V7.1546C8 7.0896 8.01818 7.0376 8.05455 6.99861C8.09697 6.95311 8.14848 6.93036 8.20909 6.93036H8.79091C8.85152 6.93036 8.9 6.95311 8.93636 6.99861C8.97879 7.0376 9 7.0896 9 7.1546V12.7758C9 12.8408 8.97879 12.896 8.93636 12.9415C8.9 12.9805 8.85152 13 8.79091 13H8.20909ZM8.20909 5.98468C8.14848 5.98468 8.09697 5.96518 8.05455 5.92618C8.01818 5.88069 8 5.82544 8 5.76045V5.23398C8 5.16899 8.01818 5.11374 8.05455 5.06825C8.09697 5.02275 8.14848 5 8.20909 5H8.78182C8.84242 5 8.89394 5.02275 8.93636 5.06825C8.97879 5.11374 9 5.16899 9 5.23398V5.76045C9 5.82544 8.97879 5.88069 8.93636 5.92618C8.89394 5.96518 8.84242 5.98468 8.78182 5.98468H8.20909Z" fill="#DBDBDB"/>
</svg>
