<svg width="80" height="80" viewBox="0 0 80 80" fill="none" xmlns="http://www.w3.org/2000/svg">
<g clip-path="url(#clip0)">
<path d="M80.0001 22.6666C79.9942 17.5144 75.8189 13.3392 70.6667 13.3333H30.6667C29.8481 13.3304 29.033 13.4421 28.2454 13.6653C27.7467 13.7853 14.576 18.7506 6.76938 21.6986H6.75871C5.23716 22.1233 3.85254 22.9371 2.74138 24.06C0.9763 25.8039 -0.0118458 28.1854 4.40136e-05 30.6666C0.00225732 33.9469 1.72777 36.9848 4.54404 38.6666C1.72894 40.3497 0.00385112 43.3868 4.40136e-05 46.6666C0.00525372 49.9478 1.73305 52.9853 4.55071 54.6666C0.944848 56.8158 -0.780321 61.1095 0.336208 65.156C1.45274 69.2025 5.13565 72.0041 9.33338 72H49.3334C50.7128 71.9988 52.0745 71.689 53.3187 71.0933C53.3285 71.094 53.3383 71.094 53.3481 71.0933L74.8001 63.036C77.8637 61.5267 79.8553 58.4615 79.9897 55.049C80.124 51.6364 78.3795 48.4241 75.4441 46.6786C76.1094 46.293 76.719 45.8184 77.2561 45.268C79.0208 43.5258 80.0098 41.1465 80.0001 38.6666C79.9884 35.3903 78.2637 32.3588 75.4534 30.6746C76.1158 30.2892 76.7231 29.8161 77.2587 29.268C79.0225 27.5253 80.0105 25.1461 80.0001 22.6666ZM28.98 16.228C29.5291 16.0745 30.0967 15.9978 30.6667 16H70.6667C74.3468 16.0044 77.329 18.9866 77.3334 22.6666C77.3416 24.436 76.6365 26.1341 75.3774 27.3773C74.9244 27.8488 74.3941 28.2393 73.8094 28.532C73.7374 28.5706 73.6761 28.6066 73.6081 28.6413C71.8094 29.308 68.6427 30.4973 63.7347 32.34L57.8094 34.5653C59.1414 31.6765 58.9092 28.3079 57.1933 25.6292C55.4774 22.9505 52.5145 21.3311 49.3334 21.3333H15.296C21.9347 18.8333 28.4374 16.4 28.98 16.228V16.228ZM2.66671 30.6666C2.65911 28.8941 3.3667 27.1934 4.62938 25.9493C5.43531 25.1311 6.44599 24.544 7.55604 24.2493C7.58938 24.2386 7.62804 24.2266 7.66671 24.212C8.21074 24.0694 8.77099 23.9982 9.33338 24H49.3334C53.0135 24.0044 55.9956 26.9866 56.0001 30.6666C55.9903 33.1612 54.5983 35.4446 52.3854 36.596C52.3463 36.6109 52.3081 36.6278 52.2707 36.6466C51.359 37.1028 50.3528 37.338 49.3334 37.3333H9.33338C5.65331 37.3289 2.67112 34.3467 2.66671 30.6666V30.6666ZM2.66671 46.6666C2.67332 42.9875 5.65422 40.0066 9.33338 40H49.3334C53.0135 40.0044 55.9956 42.9866 56.0001 46.6666C55.9903 49.1612 54.5983 51.4446 52.3854 52.596C52.3463 52.6109 52.3081 52.6279 52.2707 52.6467C51.359 53.1028 50.3528 53.338 49.3334 53.3333H9.33338C5.65331 53.3289 2.67112 50.3467 2.66671 46.6666ZM9.33338 69.3333C5.65148 69.3333 2.66671 66.3486 2.66671 62.6667C2.66671 58.9848 5.65148 56 9.33338 56H49.3334C53.0153 56 56.0001 58.9848 56.0001 62.6667C56.0001 66.3486 53.0153 69.3333 49.3334 69.3333H9.33338ZM77.3334 54.6666C77.3415 56.4358 76.6369 58.1336 75.3787 59.3773C74.8993 59.8627 74.3485 60.2719 73.7454 60.5907L57.8001 66.5707C59.787 62.3007 58.2619 57.2195 54.2521 54.7493L71.8521 48.1466C75.0141 48.7108 77.3209 51.4547 77.3334 54.6666V54.6666ZM77.3334 38.6666C77.3416 40.436 76.6365 42.1341 75.3774 43.3773C74.9244 43.8488 74.3941 44.2393 73.8094 44.532C73.7361 44.572 73.6667 44.608 73.6054 44.6426L57.8081 50.5666C59.7828 46.2952 58.2561 41.2217 54.2521 38.7493L64.6667 34.8373C67.7094 33.6946 70.0734 32.8066 71.8667 32.136C75.0232 32.7135 77.3203 35.4578 77.3334 38.6666V38.6666Z" fill="#303FF0"/>
<path d="M52 30.6668C52 29.9305 51.403 29.3335 50.6666 29.3335H7.99996C7.26358 29.3335 6.66663 29.9305 6.66663 30.6668C6.66663 31.4032 7.26358 32.0002 7.99996 32.0002H50.6666C51.403 32.0002 52 31.4032 52 30.6668Z" fill="#303FF0"/>
<path d="M52 46.6668C52 45.9304 51.403 45.3335 50.6666 45.3335H7.99996C7.26358 45.3335 6.66663 45.9304 6.66663 46.6668C6.66663 47.4032 7.26358 48.0001 7.99996 48.0001H50.6666C51.403 48.0001 52 47.4032 52 46.6668Z" fill="#303FF0"/>
<path d="M50.6666 61.3335H7.99996C7.26358 61.3335 6.66663 61.9304 6.66663 62.6668C6.66663 63.4032 7.26358 64.0002 7.99996 64.0002H50.6666C51.403 64.0002 52 63.4032 52 62.6668C52 61.9304 51.403 61.3335 50.6666 61.3335Z" fill="#303FF0"/>
<path d="M13.3333 2.66675C12.597 2.66675 12 3.2637 12 4.00008V6.66675C12 7.40313 12.597 8.00008 13.3333 8.00008C14.0697 8.00008 14.6667 7.40313 14.6667 6.66675V4.00008C14.6667 3.2637 14.0697 2.66675 13.3333 2.66675Z" fill="#303FF0"/>
<path d="M12 14.6667C12 15.4031 12.597 16.0001 13.3333 16.0001C14.0697 16.0001 14.6667 15.4031 14.6667 14.6667V12.0001C14.6667 11.2637 14.0697 10.6667 13.3333 10.6667C12.597 10.6667 12 11.2637 12 12.0001V14.6667Z" fill="#303FF0"/>
<path d="M10.6666 8H7.99996C7.26358 8 6.66663 8.59695 6.66663 9.33333C6.66663 10.0697 7.26358 10.6667 7.99996 10.6667H10.6666C11.403 10.6667 12 10.0697 12 9.33333C12 8.59695 11.403 8 10.6666 8Z" fill="#303FF0"/>
<path d="M16 10.6667H18.6666C19.403 10.6667 20 10.0697 20 9.33333C20 8.59695 19.403 8 18.6666 8H16C15.2636 8 14.6666 8.59695 14.6666 9.33333C14.6666 10.0697 15.2636 10.6667 16 10.6667Z" fill="#303FF0"/>
<path d="M77.6093 73.0574C77.0862 72.5521 76.2546 72.5593 75.7403 73.0736C75.2259 73.5879 75.2187 74.4196 75.724 74.9427L77.724 76.9427C78.2472 77.448 79.0788 77.4408 79.5931 76.9265C80.1074 76.4122 80.1146 75.5806 79.6093 75.0574L77.6093 73.0574Z" fill="#303FF0"/>
<path d="M71.7241 70.9427C72.2473 71.448 73.0789 71.4408 73.5932 70.9265C74.1075 70.4122 74.1148 69.5806 73.6095 69.0574L71.6095 67.0574C71.0863 66.5521 70.2547 66.5593 69.7404 67.0736C69.2261 67.5879 69.2188 68.4196 69.7241 68.9427L71.7241 70.9427Z" fill="#303FF0"/>
<path d="M69.7241 76.9427C70.2448 77.4632 71.0888 77.4632 71.6095 76.9427L73.6095 74.9427C74.1147 74.4196 74.1075 73.5879 73.5932 73.0736C73.0789 72.5593 72.2473 72.5521 71.7241 73.0574L69.7241 75.0574C69.2036 75.5781 69.2036 76.4221 69.7241 76.9427Z" fill="#303FF0"/>
<path d="M77.7241 67.0574L75.7241 69.0574C75.3775 69.3921 75.2385 69.8879 75.3605 70.3541C75.4825 70.8202 75.8466 71.1843 76.3128 71.3063C76.7789 71.4283 77.2747 71.2893 77.6094 70.9427L79.6094 68.9427C80.1147 68.4195 80.1075 67.5879 79.5932 67.0736C79.0789 66.5593 78.2473 66.5521 77.7241 67.0574V67.0574Z" fill="#303FF0"/>
</g>
<defs>
<clipPath id="clip0">
<rect width="80" height="80" fill="white"/>
</clipPath>
</defs>
</svg>
