<svg width="135" height="135" viewBox="0 0 135 135" fill="none" xmlns="http://www.w3.org/2000/svg">
<circle cx="68" cy="69" r="66" fill="#F2F6F6"/>
<path d="M126.242 36.5944C127.213 36.5944 128 35.8074 128 34.8366V12.5159C128 10.2544 126.16 8.41431 123.898 8.41431H12.1016C9.84008 8.41431 8 10.2544 8 12.5159V88.5457C8 90.8072 9.84008 92.6473 12.1016 92.6473H15.5V107.484C15.5 109.745 17.3401 111.585 19.6016 111.585H27.0561C29.146 111.585 30.8755 110.015 31.1265 107.992H35.3183C36.4313 107.992 37.4731 107.554 38.252 106.759C39.0282 105.966 39.4433 104.92 39.4203 103.813C39.3418 99.9985 39.0852 96.2557 38.7078 92.6475H97.2922C96.9148 96.256 96.6582 99.9982 96.5797 103.813C96.557 104.92 96.9718 105.967 97.748 106.759C98.5269 107.554 99.5689 107.992 100.682 107.992H104.874C105.124 110.015 106.854 111.586 108.944 111.586H116.398C118.66 111.586 120.5 109.746 120.5 107.484V92.6475H123.898C126.16 92.6475 128 90.8074 128 88.5459V43.1323C128 42.1615 127.213 41.3745 126.242 41.3745C125.271 41.3745 124.484 42.1615 124.484 43.1323V88.5459C124.484 88.8689 124.221 89.1319 123.898 89.1319H120.5V17.6721C120.5 16.7013 119.713 15.9143 118.742 15.9143H17.2578C16.287 15.9143 15.5 16.7013 15.5 17.6721V89.1317H12.1016C11.7786 89.1317 11.5156 88.8687 11.5156 88.5457V12.5159C11.5156 12.1929 11.7786 11.9299 12.1016 11.9299H123.898C124.221 11.9299 124.484 12.1929 124.484 12.5159V34.8363C124.484 35.8074 125.271 36.5944 126.242 36.5944V36.5944ZM30.8516 52.421C31.1745 52.421 31.4375 52.684 31.4375 53.007V59.1445C31.4375 59.4675 31.1745 59.7305 30.8516 59.7305H19.0156V52.421H30.8516ZM35.7404 104.299C35.6755 104.365 35.5341 104.476 35.318 104.476H31.1462C31.0834 98.9152 30.7264 93.0429 30.0772 86.986C29.9736 86.0206 29.1069 85.3217 28.142 85.4255C27.1766 85.5288 26.4779 86.3953 26.5815 87.3605C27.2848 93.9237 27.642 100.263 27.6432 106.204C27.643 106.214 27.6418 106.224 27.6418 106.234V107.484C27.6418 107.807 27.3788 108.07 27.0559 108.07H19.6016C19.2786 108.07 19.0156 107.807 19.0156 107.484V63.2461H29.1613C31.2345 70.1318 35.5456 86.4305 35.9052 103.886C35.9094 104.084 35.8177 104.22 35.7404 104.299V104.299ZM90.6542 19.4299C91.4945 24.0738 94.547 38.475 101.855 50.5732C101.349 51.255 101.047 52.0952 101.047 53.0067V59.1443C101.047 60.7413 101.966 62.1246 103.302 62.8017C101.949 67.3467 100.221 73.9097 98.851 81.6319H69.7578V19.4299H90.6542ZM116.984 59.7305H105.148C104.825 59.7305 104.562 59.4675 104.562 59.1445V53.007C104.562 52.684 104.825 52.421 105.148 52.421H116.984V59.7305ZM116.984 107.484C116.984 107.807 116.721 108.07 116.398 108.07H108.944C108.621 108.07 108.358 107.807 108.358 107.484V106.234C108.358 106.224 108.357 106.215 108.357 106.205C108.358 100.264 108.715 93.9242 109.418 87.3609C109.522 86.3956 108.823 85.5293 107.858 85.426C106.896 85.3224 106.026 86.021 105.923 86.9864C105.273 93.0434 104.917 98.9156 104.854 104.477H100.682C100.466 104.477 100.325 104.365 100.259 104.299C100.182 104.22 100.09 104.084 100.094 103.886C100.454 86.431 104.765 70.132 106.838 63.2463H116.984V107.484ZM116.984 19.4299V48.8672V48.9054H105.148C105.086 48.9054 105.025 48.912 104.963 48.9148C98.2712 37.9092 95.2067 24.454 94.2376 19.4302H116.984V19.4299ZM41.7645 19.4299C41.1863 22.4438 39.8572 28.4916 37.4412 35.2099C37.1129 36.1235 37.587 37.1304 38.5006 37.459C39.414 37.7871 40.4211 37.3132 40.7497 36.3996C43.4548 28.8766 44.8241 22.286 45.3441 19.4299H66.2422V81.6319H57.226C56.2552 81.6319 55.4682 82.4189 55.4682 83.3897C55.4682 84.3605 56.2552 85.1475 57.226 85.1475H67.9887C67.9925 85.1475 67.9962 85.148 68 85.148C68.0038 85.148 68.0075 85.1475 68.0113 85.1475H98.2679C98.0661 86.4504 97.876 87.7786 97.7019 89.1319H38.2981C38.124 87.7788 37.9339 86.4506 37.7321 85.1475H48.9303C49.9011 85.1475 50.6881 84.3605 50.6881 83.3897C50.6881 82.4189 49.9011 81.6319 48.9303 81.6319H37.1487C35.7791 73.9097 34.0508 67.347 32.698 62.8017C34.0334 62.1246 34.9529 60.7413 34.9529 59.1443V53.0067C34.9529 52.0952 34.6503 51.255 34.1452 50.5732C35.3342 48.6028 36.473 46.4646 37.5373 44.2013C37.9505 43.3226 37.5732 42.2756 36.6945 41.8624C35.8159 41.4497 34.7689 41.8266 34.3557 42.7052C33.3139 44.9206 32.1999 47.0046 31.0391 48.9145C30.9763 48.9117 30.9146 48.9049 30.8511 48.9049H19.0156V19.4299H41.7645Z" fill="#303FF0"/>
</svg>
