<svg width="135" height="135" viewBox="0 0 135 135" fill="none" xmlns="http://www.w3.org/2000/svg">
<circle cx="68" cy="69" r="66" fill="#F2F6F6"/>
<g clip-path="url(#clip0)">
<path d="M105.375 8.42212H99.6427C98.4807 8.42212 97.5377 9.36517 97.5377 10.5272C97.5377 11.6892 98.4807 12.6322 99.6427 12.6322H105.375C107.983 12.6322 110.106 14.7533 110.106 17.3629V111.059C110.106 113.668 107.985 115.79 105.375 115.79H30.6258C28.0175 115.79 25.8952 113.669 25.8952 111.059V17.3629C25.8952 14.7545 28.0162 12.6322 30.6258 12.6322H35.6846C36.8466 12.6322 37.7896 11.6892 37.7896 10.5272C37.7896 9.36517 36.8466 8.42212 35.6846 8.42212H30.6258C25.6966 8.42212 21.6851 12.4324 21.6851 17.3629V111.059C21.6851 115.989 25.6953 120 30.6258 120H105.375C110.304 120 114.316 115.989 114.316 111.059V17.3629C114.316 12.4336 110.305 8.42212 105.375 8.42212Z" fill="#303FF0"/>
<path d="M92.754 0.000732422H42.7374C41.5754 0.000732422 40.6323 0.943779 40.6323 2.10578C40.6323 3.26778 41.5754 4.21083 42.7374 4.21083H92.754C93.916 4.21083 94.859 3.26778 94.859 2.10578C94.859 0.943779 93.916 0.000732422 92.754 0.000732422Z" fill="#303FF0"/>
<path d="M73.9219 18.7542C73.1522 17.8827 71.8206 17.8006 70.9503 18.5698L67.7449 21.4026L64.3459 18.3983C63.4756 17.6279 62.144 17.7112 61.3755 18.5815C60.6052 19.4517 60.6872 20.7827 61.5587 21.5519L66.351 25.7879C66.7489 26.1407 67.246 26.3164 67.7449 26.3164C68.2421 26.3164 68.741 26.1407 69.1388 25.7903L73.7375 21.7264C74.6096 20.9567 74.6917 19.6251 73.9219 18.7542Z" fill="#303FF0"/>
<path d="M68.0003 21.0535C66.8383 21.0535 65.8953 21.9965 65.8953 23.1585V117.895C65.8953 119.057 66.8383 120 68.0003 120C69.1623 120 70.1054 119.057 70.1054 117.895V23.1585C70.1054 21.9965 69.1623 21.0535 68.0003 21.0535Z" fill="#303FF0"/>
<path d="M76.4212 23.1587C75.2592 23.1587 74.3162 24.1017 74.3162 25.2637V117.895C74.3162 119.057 75.2592 120 76.4212 120C77.5832 120 78.5263 119.057 78.5263 117.895V25.2637C78.5263 24.1017 77.5832 23.1587 76.4212 23.1587Z" fill="#303FF0"/>
<path d="M65.7424 16.2902L43.9783 0.405217C43.5243 0.0733933 42.9532 -0.0610632 42.4006 0.0271353C41.8436 0.117801 41.349 0.426188 41.0215 0.885067L31.8204 13.8163C31.4899 14.2808 31.3628 14.8587 31.4658 15.4175C31.5682 15.9775 31.8932 16.4722 32.3669 16.7879L55.1499 31.9976C55.5076 32.2387 55.9141 32.3522 56.3162 32.3522C56.9965 32.3522 57.6645 32.0235 58.0697 31.4166L66.2518 19.1601C66.8791 18.2207 66.6539 16.9557 65.7424 16.2902ZM55.7371 27.328L36.5085 14.4911L43.2184 5.06185L61.6297 18.5007L55.7371 27.328Z" fill="#303FF0"/>
<path d="M104.112 13.8157L94.9095 0.883853C94.582 0.426208 94.0855 0.116588 93.5304 0.0259219C92.9778 -0.0616599 92.406 0.0721798 91.9527 0.404004L70.1898 16.289C69.2782 16.9545 69.0531 18.2195 69.6804 19.1582L77.8625 31.4147C78.2677 32.0229 78.9351 32.3516 79.6154 32.3516C80.0175 32.3516 80.4239 32.2381 80.7829 31.9957L103.566 16.7861C104.04 16.4703 104.364 15.9757 104.467 15.4156C104.569 14.8568 104.441 14.2789 104.112 13.8157ZM80.1945 27.328L74.3019 18.5007L92.7138 5.06311L99.423 14.4917L80.1945 27.328Z" fill="#303FF0"/>
<path d="M57.474 50.5266H34.316C33.154 50.5266 32.2109 51.4697 32.2109 52.6317V67.3682C32.2109 68.5302 33.154 69.4733 34.316 69.4733H57.474C58.636 69.4733 59.579 68.5302 59.579 67.3682V52.6323C59.579 51.4697 58.636 50.5266 57.474 50.5266ZM55.3689 65.2638H36.4216V54.7373H55.3689V65.2638Z" fill="#303FF0"/>
<path d="M57.474 44.2109H34.316C33.154 44.2109 32.2109 45.154 32.2109 46.316V52.6317C32.2109 53.7937 33.154 54.7368 34.316 54.7368H57.474C58.636 54.7368 59.579 53.7937 59.579 52.6317V46.316C59.579 45.1546 58.636 44.2109 57.474 44.2109ZM55.3689 50.5267H36.4216V48.4217H55.3689V50.5267Z" fill="#303FF0"/>
</g>
<defs>
<clipPath id="clip0">
<rect width="120" height="120" fill="white" transform="translate(8)"/>
</clipPath>
</defs>
</svg>
