<svg width="135" height="135" viewBox="0 0 135 135" fill="none" xmlns="http://www.w3.org/2000/svg">
<circle cx="68" cy="69" r="66" fill="#F2F6F6"/>
<path d="M110.048 32.6801L106.19 16.9765C103.732 6.98086 94.8289 0 84.5387 0H51.4613C41.1687 0 32.2651 6.98109 29.8093 16.977L25.9515 32.6801C25.594 34.1337 26.7308 35.583 28.2275 35.583H47.7493C48.1205 37.1081 48.3125 38.6824 48.3125 40.2823V43.2091C48.3125 57.4514 37.5779 68.7005 32.9942 73.504C32.2674 74.2652 31.6937 74.8666 31.298 75.338C30.0654 76.8054 29.7526 78.8259 30.4817 80.6107C31.5774 83.295 34.2863 88.0821 40.1183 89.9836C46.4117 92.0362 51.1697 89.8371 53.6408 88.1449C56.9544 91.1948 61.1588 93.3886 65.656 93.9476V103.919H47.0037C41.3574 103.919 36.7639 108.513 36.7639 114.159V117.656C36.7639 118.95 37.8134 120 39.1076 120H57.7686C59.0628 120 60.1123 118.95 60.1123 117.656C60.1123 116.362 59.0628 115.312 57.7686 115.312H41.4514V114.159C41.4514 111.097 43.9423 108.606 47.0037 108.606H88.9962C92.0579 108.606 94.5488 111.097 94.5488 114.159V115.312H78.3884C77.0942 115.312 76.0447 116.362 76.0447 117.656C76.0447 118.95 77.0942 120 78.3884 120H96.8926C98.1868 120 99.2363 118.95 99.2363 117.656V114.159C99.2363 108.512 94.6426 103.919 88.9962 103.919H70.3435V93.9476C74.8433 93.3865 79.0412 91.1944 82.3587 88.1449C84.83 89.8373 89.5876 92.0362 95.8815 89.9836C101.713 88.0821 104.422 83.295 105.518 80.6109C106.247 78.8262 105.934 76.8059 104.702 75.3382C104.306 74.8666 103.732 74.2652 103.006 73.504C98.4216 68.7005 87.6872 57.4514 87.6872 43.2091V40.282C87.6872 38.6824 87.8792 37.1084 88.2507 35.5828H107.773C109.269 35.5828 110.406 34.1337 110.048 32.6801V32.6801ZM87.5487 26.0578C84.4768 30.4662 82.9993 35.5083 82.9993 40.8654H53C53 35.5767 51.5736 30.4699 48.499 26.1286C45.1859 21.4493 45.4885 15.1493 49.2357 10.8075L52.179 7.39453C52.5214 8.38758 52.9695 9.45609 53.5573 10.526C55.6297 14.298 59.8175 18.7945 67.9995 18.7945C76.1815 18.7945 80.3696 14.298 82.4422 10.526C83.0302 9.45586 83.4783 8.38734 83.8208 7.3943L83.8592 7.43883L86.7645 10.8077C90.3999 15.0223 90.6952 21.4863 87.5487 26.0578V26.0578ZM79.5092 84.3818C76.4229 87.3492 72.274 89.4281 67.9327 89.4056C63.736 89.3855 59.7504 87.4118 56.716 84.5953C58.8427 80.3977 63.8724 68.1349 64.2015 45.5527H72.1852C72.5079 67.7067 77.3532 79.9284 79.5444 84.3476C79.5326 84.3593 79.5211 84.3703 79.5092 84.3818V84.3818ZM79.7504 4.68867C79.459 5.77594 78.9955 7.09547 78.2644 8.39391C76.1302 12.1849 72.6765 14.107 67.9995 14.107C63.3226 14.107 59.8693 12.1849 57.7351 8.39391C57.004 7.09547 56.5407 5.77594 56.2494 4.68867H79.7504ZM31.2169 30.8953L34.3615 18.0952C36.0223 11.3358 41.4167 6.32203 48.0359 5.02008L45.6849 7.74492C42.7519 11.1443 41.2456 15.6412 41.5566 20.1218C41.8529 24.3891 44.0009 27.2862 45.9479 30.8955H31.2169V30.8953ZM41.5714 85.5272C37.5364 84.2114 35.6101 80.772 34.8209 78.8388C34.752 78.6696 34.7771 78.4833 34.8872 78.3525C35.1875 77.9951 35.7422 77.4134 36.3851 76.74C41.113 71.7855 51.8733 60.5088 52.9179 45.5529H59.5119C59.3049 59.0238 57.3458 68.4914 55.6869 74.1605C54.0563 79.7323 52.4098 82.762 51.972 83.5153C51.1512 84.2698 47.3005 87.3949 41.5714 85.5272V85.5272ZM99.6141 76.74C100.257 77.4134 100.812 77.9948 101.112 78.3525C101.222 78.4835 101.247 78.6698 101.178 78.8391C100.389 80.772 98.4629 84.2114 94.4281 85.527C89.6834 87.0743 85.4276 84.8414 84.7189 84.0827C82.5605 80.5059 81.7264 77.6728 80.6989 74.1605C79.0402 68.4914 77.0818 59.0238 76.8751 45.5527H83.0813C84.1259 60.5088 94.8863 71.7855 99.6141 76.74V76.74ZM90.0528 30.8953C91.9794 27.3279 94.0782 24.3973 94.3862 20.1816C94.7131 15.7071 93.2492 11.1464 90.3144 7.74469L88.0419 5.11078L87.9633 5.01984C94.5814 6.32156 99.976 11.3355 101.638 18.0949L104.783 30.8951H90.0528V30.8953Z" fill="#303FF0"/>
<path d="M70.163 116.759C69.7791 115.836 68.8231 115.246 67.8261 115.321C66.8061 115.397 65.9426 116.146 65.7134 117.142C65.2428 119.184 67.6381 120.78 69.3481 119.573C70.2364 118.946 70.5753 117.763 70.163 116.759V116.759Z" fill="#303FF0"/>
</svg>
