<svg width="135" height="135" viewBox="0 0 135 135" fill="none" xmlns="http://www.w3.org/2000/svg">
<circle cx="68" cy="69" r="66" fill="#F2F6F6"/>
<g clip-path="url(#clip0)">
<path d="M128 34.0001C127.991 26.2718 121.728 20.0089 114 20.0001H54.0001C52.7721 19.9957 51.5496 20.1633 50.3681 20.4981C49.6201 20.6781 29.8641 28.1261 18.1541 32.5481H18.1381C15.8557 33.185 13.7788 34.4058 12.1121 36.0901C9.46445 38.706 7.98223 42.2782 8.00007 46.0001C8.00339 50.9205 10.5916 55.4773 14.8161 58.0001C10.5934 60.5246 8.00578 65.0803 8.00007 70.0001C8.00788 74.9219 10.5996 79.478 14.8261 82.0001C9.41727 85.2238 6.82952 91.6644 8.50431 97.7342C10.1791 103.804 15.7035 108.006 22.0001 108H82.0001C84.0692 107.998 86.1118 107.534 87.9781 106.64C87.9927 106.641 88.0074 106.641 88.0221 106.64L120.2 94.5541C124.796 92.2902 127.783 87.6924 127.985 82.5736C128.186 77.4547 125.569 72.6363 121.166 70.0181C122.164 69.4397 123.079 68.7278 123.884 67.9021C126.531 65.2888 128.015 61.7198 128 58.0001C127.983 53.0856 125.396 48.5383 121.18 46.0121C122.174 45.434 123.085 44.7242 123.888 43.9021C126.534 41.2881 128.016 37.7192 128 34.0001ZM51.4701 24.3421C52.2936 24.1119 53.145 23.9968 54.0001 24.0001H114C119.52 24.0067 123.993 28.48 124 34.0001C124.012 36.6542 122.955 39.2013 121.066 41.0661C120.387 41.7733 119.591 42.3591 118.714 42.7981C118.606 42.8561 118.514 42.9101 118.412 42.9621C115.714 43.9621 110.964 45.7461 103.602 48.5101L94.7141 51.8481C96.7121 47.5148 96.3638 42.462 93.7899 38.444C91.2161 34.4259 86.7718 31.9968 82.0001 32.0001H30.9441C40.9021 28.2501 50.6561 24.6001 51.4701 24.3421V24.3421ZM12.0001 46.0001C11.9887 43.3412 13.05 40.7902 14.9441 38.9241C16.153 37.6967 17.669 36.8161 19.3341 36.3741C19.3841 36.3581 19.4421 36.3401 19.5001 36.3181C20.3161 36.1043 21.1565 35.9974 22.0001 36.0001H82.0001C87.5202 36.0067 91.9935 40.48 92.0001 46.0001C91.9855 49.7419 89.8975 53.167 86.5781 54.8941C86.5195 54.9165 86.4621 54.9419 86.4061 54.9701C85.0385 55.6543 83.5292 56.0071 82.0001 56.0001H22.0001C16.48 55.9935 12.0067 51.5202 12.0001 46.0001V46.0001ZM12.0001 70.0001C12.01 64.4814 16.4813 60.01 22.0001 60.0001H82.0001C87.5202 60.0067 91.9935 64.48 92.0001 70.0001C91.9855 73.7419 89.8975 77.167 86.5781 78.8941C86.5195 78.9165 86.4621 78.9419 86.4061 78.9701C85.0385 79.6543 83.5292 80.0071 82.0001 80.0001H22.0001C16.48 79.9935 12.0067 75.5202 12.0001 70.0001ZM22.0001 104C16.4772 104 12.0001 99.523 12.0001 94.0001C12.0001 88.4773 16.4772 84.0001 22.0001 84.0001H82.0001C87.5229 84.0001 92.0001 88.4773 92.0001 94.0001C92.0001 99.523 87.5229 104 82.0001 104H22.0001ZM124 82.0001C124.012 84.6538 122.955 87.2006 121.068 89.0661C120.349 89.7941 119.523 90.4079 118.618 90.8861L94.7001 99.8561C97.6804 93.4511 95.3929 85.8293 89.3781 82.1241L115.778 72.2201C120.521 73.0664 123.981 77.1822 124 82.0001V82.0001ZM124 58.0001C124.012 60.6542 122.955 63.2013 121.066 65.0661C120.387 65.7733 119.591 66.3591 118.714 66.7981C118.604 66.8581 118.5 66.9121 118.408 66.9641L94.7121 75.8501C97.6742 69.4428 95.3842 61.8327 89.3781 58.1241L105 52.2561C109.564 50.5421 113.11 49.2101 115.8 48.2041C120.535 49.0704 123.981 53.1868 124 58.0001V58.0001Z" fill="#303FF0"/>
<path d="M86 46C86 44.8954 85.1046 44 84 44H20C18.8954 44 18 44.8954 18 46C18 47.1046 18.8954 48 20 48H84C85.1046 48 86 47.1046 86 46Z" fill="#303FF0"/>
<path d="M86 70C86 68.8954 85.1046 68 84 68H20C18.8954 68 18 68.8954 18 70C18 71.1046 18.8954 72 20 72H84C85.1046 72 86 71.1046 86 70Z" fill="#303FF0"/>
<path d="M84 92H20C18.8954 92 18 92.8954 18 94C18 95.1046 18.8954 96 20 96H84C85.1046 96 86 95.1046 86 94C86 92.8954 85.1046 92 84 92Z" fill="#303FF0"/>
<path d="M28 4C26.8954 4 26 4.89543 26 6V10C26 11.1046 26.8954 12 28 12C29.1046 12 30 11.1046 30 10V6C30 4.89543 29.1046 4 28 4Z" fill="#303FF0"/>
<path d="M26 22C26 23.1046 26.8954 24 28 24C29.1046 24 30 23.1046 30 22V18C30 16.8954 29.1046 16 28 16C26.8954 16 26 16.8954 26 18V22Z" fill="#303FF0"/>
<path d="M24 12H20C18.8954 12 18 12.8954 18 14C18 15.1046 18.8954 16 20 16H24C25.1046 16 26 15.1046 26 14C26 12.8954 25.1046 12 24 12Z" fill="#303FF0"/>
<path d="M32 16H36C37.1046 16 38 15.1046 38 14C38 12.8954 37.1046 12 36 12H32C30.8954 12 30 12.8954 30 14C30 15.1046 30.8954 16 32 16Z" fill="#303FF0"/>
<path d="M124.414 109.586C123.629 108.828 122.382 108.839 121.61 109.61C120.839 110.382 120.828 111.629 121.586 112.414L124.586 115.414C125.371 116.172 126.618 116.161 127.39 115.39C128.161 114.618 128.172 113.371 127.414 112.586L124.414 109.586Z" fill="#303FF0"/>
<path d="M115.586 106.414C116.371 107.172 117.618 107.161 118.39 106.39C119.161 105.618 119.172 104.371 118.414 103.586L115.414 100.586C114.629 99.8281 113.382 99.839 112.61 100.61C111.839 101.382 111.828 102.629 112.586 103.414L115.586 106.414Z" fill="#303FF0"/>
<path d="M112.586 115.414C113.367 116.195 114.633 116.195 115.414 115.414L118.414 112.414C119.172 111.629 119.161 110.382 118.39 109.61C117.618 108.839 116.371 108.828 115.586 109.586L112.586 112.586C111.805 113.367 111.805 114.633 112.586 115.414Z" fill="#303FF0"/>
<path d="M124.586 100.586L121.586 103.586C121.066 104.088 120.858 104.832 121.041 105.531C121.224 106.23 121.77 106.776 122.469 106.959C123.168 107.142 123.912 106.934 124.414 106.414L127.414 103.414C128.172 102.629 128.161 101.382 127.39 100.61C126.618 99.839 125.371 99.8281 124.586 100.586V100.586Z" fill="#303FF0"/>
</g>
<defs>
<clipPath id="clip0">
<rect width="120" height="120" fill="white" transform="translate(8)"/>
</clipPath>
</defs>
</svg>
