<svg width="40" height="40" viewBox="0 0 40 40" fill="none" xmlns="http://www.w3.org/2000/svg">
<path d="M12 13.8178C12 12.7185 12.3479 11.8095 13.0437 11.0908C13.7483 10.3636 14.6398 10 15.7183 10C16.7969 10 17.6841 10.3636 18.3799 11.0908C19.0844 11.8095 19.4367 12.7439 19.4367 13.8939V14.7944C19.4367 15.8767 19.0888 16.7815 18.3929 17.5087C17.7058 18.2274 16.823 18.5868 15.7444 18.5868C14.6746 18.5868 13.7831 18.2316 13.0698 17.5214C12.3566 16.8111 12 15.8725 12 14.7056V13.8178ZM13.2655 14.7944C13.2655 15.5808 13.4873 16.2276 13.9309 16.735C14.3832 17.2423 14.9877 17.496 15.7444 17.496C16.4838 17.496 17.0709 17.2423 17.5058 16.735C17.9493 16.2192 18.1711 15.5554 18.1711 14.7437V13.8178C18.1711 13.0314 17.945 12.3845 17.4927 11.8772C17.0404 11.3614 16.449 11.1035 15.7183 11.1035C14.9964 11.1035 14.405 11.3571 13.944 11.8645C13.4917 12.3718 13.2655 13.0483 13.2655 13.8939V14.7944ZM21.5633 24.2056C21.5633 23.1064 21.9112 22.1974 22.6071 21.4786C23.3116 20.7599 24.1988 20.4005 25.2686 20.4005C26.3384 20.4005 27.2256 20.7599 27.9302 21.4786C28.6434 22.1889 29 23.1275 29 24.2944V25.1949C29 26.2942 28.6477 27.2032 27.9432 27.9219C27.2474 28.6406 26.3645 29 25.2947 29C24.2249 29 23.3333 28.6449 22.6201 27.9346C21.9156 27.2158 21.5633 26.2815 21.5633 25.1315V24.2056ZM22.8158 25.1949C22.8158 25.9898 23.0376 26.6409 23.4812 27.1482C23.9335 27.6555 24.538 27.9092 25.2947 27.9092C26.0427 27.9092 26.6342 27.6555 27.0691 27.1482C27.5127 26.6324 27.7345 25.9602 27.7345 25.1315V24.2056C27.7345 23.3939 27.5083 22.7428 27.056 22.2523C26.6124 21.7534 26.0166 21.504 25.2686 21.504C24.538 21.504 23.9465 21.7534 23.4942 22.2523C23.042 22.7512 22.8158 23.4192 22.8158 24.2563V25.1949ZM16.2402 27.1989L15.2617 26.5901L24.538 12.1562L25.5165 12.765L16.2402 27.1989Z" fill="white"/>
<circle cx="20" cy="20" r="19.5" stroke="white"/>
</svg>
