<svg width="35" height="35" viewBox="0 0 35 35" fill="none" xmlns="http://www.w3.org/2000/svg">
<g clip-path="url(#clip0)">
<path d="M34.4804 12.6511C34.0182 12.0713 33.3249 11.7387 32.578 11.7387H25.8375L22.1823 3.36923C21.9557 2.85031 21.3513 2.61317 20.8323 2.83992C20.3133 3.06653 20.0763 3.67104 20.303 4.19002L23.5996 11.7387H11.4004L14.697 4.19002C14.9236 3.67104 14.6867 3.0666 14.1677 2.83992C13.6488 2.61317 13.0443 2.85018 12.8177 3.36923L9.16255 11.7387H2.42205C1.67515 11.7387 0.981782 12.0713 0.519604 12.6512C0.0659027 13.2205 -0.101509 13.9524 0.0602973 14.6593L3.6599 30.382C3.91125 31.4798 4.88244 32.2465 6.02164 32.2465H28.9784C30.1176 32.2465 31.0888 31.4798 31.3401 30.382L34.9397 14.6593C35.1015 13.9523 34.9341 13.2204 34.4804 12.6511ZM28.9784 30.1957H6.02164C5.84753 30.1957 5.69502 30.0815 5.659 29.9242L2.0594 14.2017C2.03117 14.0783 2.07854 13.9854 2.12338 13.9293C2.16495 13.8771 2.25908 13.7895 2.42205 13.7895H8.26698L7.99839 14.4045C7.77178 14.9235 8.00871 15.528 8.5277 15.7546C8.66127 15.813 8.80045 15.8406 8.93751 15.8406C9.33277 15.8406 9.70943 15.6108 9.87773 15.2254L10.5048 13.7897H24.4954L25.1224 15.2254C25.2907 15.6108 25.6674 15.8406 26.0626 15.8406C26.1996 15.8406 26.3389 15.813 26.4724 15.7546C26.9914 15.528 27.2284 14.9235 27.0017 14.4045L26.7332 13.7895H32.5781C32.7411 13.7895 32.8352 13.8771 32.8768 13.9293C32.9215 13.9855 32.969 14.0783 32.9407 14.2016L29.3411 29.9242C29.305 30.0815 29.1525 30.1957 28.9784 30.1957Z" fill="#303FF0"/>
<path d="M11.3477 18.2324C10.7814 18.2324 10.3223 18.6915 10.3223 19.2578V26.7773C10.3223 27.3436 10.7814 27.8027 11.3477 27.8027C11.9139 27.8027 12.373 27.3436 12.373 26.7773V19.2578C12.373 18.6915 11.914 18.2324 11.3477 18.2324Z" fill="#303FF0"/>
<path d="M17.5 18.2324C16.9337 18.2324 16.4746 18.6915 16.4746 19.2578V26.7773C16.4746 27.3436 16.9337 27.8027 17.5 27.8027C18.0663 27.8027 18.5254 27.3436 18.5254 26.7773V19.2578C18.5254 18.6915 18.0663 18.2324 17.5 18.2324Z" fill="#303FF0"/>
<path d="M23.6523 18.2324C23.0861 18.2324 22.627 18.6915 22.627 19.2578V26.7773C22.627 27.3436 23.0861 27.8027 23.6523 27.8027C24.2186 27.8027 24.6777 27.3436 24.6777 26.7773V19.2578C24.6777 18.6915 24.2186 18.2324 23.6523 18.2324Z" fill="#303FF0"/>
</g>
<defs>
<clipPath id="clip0">
<rect width="35" height="35" fill="white"/>
</clipPath>
</defs>
</svg>
