<svg width="26" height="26" viewBox="0 0 26 26" fill="none" xmlns="http://www.w3.org/2000/svg">
<path d="M13.003 1H12.997C6.3805 1 1 6.382 1 13C1 15.625 1.846 18.058 3.2845 20.0335L1.789 24.4915L6.4015 23.017C8.299 24.274 10.5625 25 13.003 25C19.6195 25 25 19.6165 25 13C25 6.3835 19.6195 1 13.003 1Z" fill="#4CAF50"/>
<path d="M19.9856 17.9453C19.6961 18.7628 18.5471 19.4408 17.6306 19.6388C17.0036 19.7723 16.1846 19.8788 13.4276 18.7358C9.90108 17.2748 7.63008 13.6913 7.45308 13.4588C7.28358 13.2263 6.02808 11.5613 6.02808 9.83928C6.02808 8.11728 6.90258 7.27878 7.25508 6.91878C7.54458 6.62328 8.02308 6.48828 8.48208 6.48828C8.63058 6.48828 8.76408 6.49578 8.88408 6.50178C9.23658 6.51678 9.41358 6.53778 9.64608 7.09428C9.93558 7.79178 10.6406 9.51378 10.7246 9.69078C10.8101 9.86778 10.8956 10.1078 10.7756 10.3403C10.6631 10.5803 10.5641 10.6868 10.3871 10.8908C10.2101 11.0948 10.0421 11.2508 9.86508 11.4698C9.70308 11.6603 9.52008 11.8643 9.72408 12.2168C9.92808 12.5618 10.6331 13.7123 11.6711 14.6363C13.0106 15.8288 14.0966 16.2098 14.4851 16.3718C14.7746 16.4918 15.1196 16.4633 15.3311 16.2383C15.5996 15.9488 15.9311 15.4688 16.2686 14.9963C16.5086 14.6573 16.8116 14.6153 17.1296 14.7353C17.4536 14.8478 19.1681 15.6953 19.5206 15.8708C19.8731 16.0478 20.1056 16.1318 20.1911 16.2803C20.2751 16.4288 20.2751 17.1263 19.9856 17.9453Z" fill="#FAFAFA"/>
</svg>
