<svg width="26" height="26" viewBox="0 0 26 26" fill="none" xmlns="http://www.w3.org/2000/svg">
<path d="M25 12.2328C25 18.9883 19.5055 24.4647 12.7262 24.4647C10.5749 24.4647 8.55398 23.912 6.79476 22.9441L0 25.1116L2.21492 18.5469C1.09809 16.7045 0.454886 14.5411 0.454886 12.2319C0.455702 5.47645 5.94858 0 12.7279 0C19.5063 0.0016377 25 5.47727 25 12.2328ZM12.7254 1.9505C7.03606 1.9505 2.40813 6.56388 2.40813 12.2352C2.40813 14.4854 3.13855 16.5686 4.37359 18.2636L3.08556 22.0819L7.04911 20.8167C8.67953 21.8911 10.6303 22.5167 12.7254 22.5167C18.4147 22.5167 23.0443 17.9041 23.0443 12.2328C23.0459 6.56388 18.4156 1.9505 12.7254 1.9505ZM18.9243 15.0504C18.8476 14.9268 18.6471 14.8514 18.3471 14.7008C18.0479 14.5501 16.5667 13.8254 16.2919 13.7272C16.0148 13.6264 15.8142 13.5757 15.6137 13.8762C15.4156 14.1767 14.8384 14.8514 14.6615 15.0529C14.4863 15.2535 14.311 15.2789 14.0102 15.1307C13.7094 14.9784 12.7393 14.6639 11.5898 13.6428C10.6955 12.8469 10.0915 11.8667 9.91701 11.5662C9.74011 11.2665 9.89908 11.1044 10.0483 10.9554C10.1828 10.8203 10.3491 10.6049 10.4999 10.4288C10.6507 10.2544 10.7004 10.1308 10.8007 9.93017C10.8993 9.72955 10.8496 9.55513 10.7754 9.40365C10.7004 9.25298 10.0996 7.77905 9.84772 7.17884C9.59745 6.57944 9.34718 6.67852 9.1711 6.67852C8.99583 6.67852 8.79528 6.65396 8.59474 6.65396C8.3942 6.65396 8.06812 6.72683 7.79339 7.02735C7.51867 7.32787 6.74096 8.05255 6.74096 9.52811C6.74096 11.0053 7.81785 12.4293 7.96866 12.6291C8.12029 12.8281 10.0507 15.9552 13.1086 17.1557C16.168 18.3553 16.168 17.9549 16.7191 17.9041C17.2718 17.8533 18.4995 17.1794 18.749 16.4801C19.0001 15.7776 19.0001 15.1757 18.9243 15.0504Z" fill="white"/>
</svg>
