<svg width="26" height="26" viewBox="0 0 26 26" fill="none" xmlns="http://www.w3.org/2000/svg">
<g clip-path="url(#clip0)">
<path d="M15.0003 0H9.99966C5.17422 0 1.24854 3.92568 1.24854 8.75112V12.5016C1.24854 15.8894 3.20234 18.9637 6.24917 20.4099V24.5865C6.24917 24.9491 6.70283 25.1387 6.96055 24.8812L10.5889 21.2527H15.0002C19.8256 21.2527 23.7514 17.3271 23.7514 12.5016V8.75112C23.7514 3.92568 19.8256 0 15.0003 0Z" fill="#665CAC"/>
<path d="M7.49932 20.4098C4.45249 18.9636 2.49868 15.8893 2.49868 12.5016V8.75107C2.49868 3.92568 6.42441 0 11.2498 0H9.99966C5.17422 0 1.24854 3.92568 1.24854 8.75112V12.5016C1.24854 15.8894 3.20234 18.9637 6.24917 20.4099V24.5865C6.24917 24.9491 6.70283 25.1387 6.96055 24.8812L7.49932 24.3424V20.4098Z" fill="#523494"/>
<path d="M18.7914 15.5325L18.4168 13.503C18.3858 13.3353 18.2559 13.2034 18.0887 13.1699L15.1421 12.5806C15.0052 12.5534 14.8642 12.5961 14.7656 12.6946L13.5685 13.8918C11.5515 12.988 10.4321 11.8661 9.4471 9.76257L10.6404 8.56936C10.7389 8.47082 10.7816 8.32951 10.7543 8.19289L10.165 5.24621C10.1316 5.07907 9.99969 4.94909 9.83202 4.91814L7.80243 4.54353C7.74686 4.53332 7.68963 4.5344 7.63446 4.54695C7.09857 4.66867 6.6096 4.93869 6.22039 5.328C5.54647 6.00193 5.2889 6.98532 5.47562 8.1719C5.78905 10.1644 6.76522 12.9372 8.56624 14.7455L8.59085 14.7699C10.3977 16.5697 13.1706 17.5459 15.1632 17.8594C15.4142 17.8989 15.6559 17.9185 15.8878 17.9185C16.7518 17.9185 17.4757 17.646 18.0072 17.1146C18.3964 16.7253 18.6665 16.2363 18.7882 15.7006C18.8005 15.6453 18.8017 15.5882 18.7914 15.5325Z" fill="white"/>
<path d="M10.2332 8.97676L10.6406 8.56929L10.6411 8.56885L10.2332 8.97671L10.2332 8.97676Z" fill="#E5E5E5"/>
<path d="M14.7659 12.6941L14.3545 13.1055L14.3546 13.1055L14.766 12.6941L14.7659 12.6941Z" fill="#E5E5E5"/>
<path d="M16.6736 17.1324C16.4418 17.1324 16.2 17.1128 15.949 17.0733C13.9565 16.7598 11.1836 15.7835 9.37669 13.9838L9.35208 13.9594C7.55106 12.1511 6.57489 9.37827 6.26146 7.38579C6.11063 6.42715 6.25008 5.60122 6.66458 4.96387C6.50584 5.06978 6.35687 5.19126 6.22039 5.32773C5.54647 6.00166 5.2889 6.98506 5.47562 8.17163C5.78905 10.1641 6.76522 12.937 8.56624 14.7452L8.59085 14.7696C10.3977 16.5694 13.1706 17.5457 15.1632 17.8591C15.4142 17.8987 15.6559 17.9183 15.8878 17.9183C16.7518 17.9183 17.4757 17.6458 18.0072 17.1143C18.1436 16.9778 18.2651 16.8289 18.371 16.6702C17.9004 16.9762 17.3272 17.1324 16.6736 17.1324Z" fill="#E5E5E5"/>
<path d="M13.3334 7.08447C13.1033 7.08447 12.9167 7.27104 12.9167 7.50117C12.9167 7.7313 13.1033 7.91787 13.3334 7.91787C14.2526 7.91787 15.0003 8.66562 15.0003 9.58476C15.0003 9.81182 15.19 10.0015 15.417 10.0015C15.6441 10.0015 15.8337 9.81182 15.8337 9.58476C15.8338 8.20605 14.7122 7.08447 13.3334 7.08447Z" fill="white"/>
<path d="M13.3335 5.41748C13.1794 5.41748 13.0238 5.42603 12.8711 5.44287C12.6423 5.46812 12.4773 5.67402 12.5026 5.90283C12.5278 6.13164 12.7341 6.29619 12.9625 6.27134C13.085 6.25781 13.2098 6.25093 13.3335 6.25093C15.1717 6.25093 16.6672 7.74644 16.6672 9.58467C16.6672 9.70845 16.6604 9.83325 16.6468 9.95571C16.6219 10.1813 16.7896 10.3908 17.0153 10.4157C17.241 10.4405 17.4504 10.2729 17.4753 10.0472C17.4922 9.89443 17.5007 9.73887 17.5007 9.58467C17.5007 7.28691 15.6313 5.41748 13.3335 5.41748Z" fill="white"/>
<path d="M13.334 3.75049C13.185 3.75049 13.0342 3.75615 12.8858 3.76743C12.6563 3.78481 12.4843 3.98501 12.5017 4.21445C12.519 4.44395 12.7199 4.61592 12.9487 4.59854C13.0763 4.58882 13.2059 4.58394 13.334 4.58394C16.0913 4.58394 18.3346 6.8272 18.3346 9.58457C18.3346 9.97471 18.2896 10.3631 18.2008 10.7389C18.1499 10.9542 18.2825 11.178 18.496 11.2365C18.7207 11.298 18.9584 11.1572 19.0119 10.9306C19.1155 10.492 19.1681 10.0392 19.1681 9.58457C19.1681 6.36763 16.5509 3.75049 13.334 3.75049Z" fill="white"/>
</g>
<defs>
<clipPath id="clip0">
<rect width="25" height="25" fill="white"/>
</clipPath>
</defs>
</svg>
