<svg width="26" height="26" viewBox="0 0 26 26" fill="none" xmlns="http://www.w3.org/2000/svg">
<path d="M24.9165 8.86297C24.9167 6.50455 23.9947 4.28138 22.3207 2.60289C20.6466 0.924404 18.4293 0 16.077 0H10.8395C10.8393 0 10.8393 0 10.8393 0C8.48732 0 6.26985 0.924404 4.596 2.6027C2.92196 4.28138 2 6.50455 2 8.86297V12.9909C2 14.8175 2.55566 16.5743 3.60697 18.072C4.53447 19.3931 5.78183 20.4252 7.23613 21.0795V23.4505C7.23613 24.6765 7.92077 25.1116 8.507 25.1116C8.92585 25.1116 9.34469 24.9043 9.75245 24.4957L12.387 21.8541L16.0772 21.8539C18.4293 21.8539 20.6466 20.9295 22.3207 19.2512C23.9947 17.5727 24.9167 15.3493 24.9167 12.9909L24.9165 8.86297ZM16.0772 20.3825L12.0832 20.3827C11.8885 20.3827 11.702 20.4601 11.5645 20.598L8.71489 23.4551C8.71126 23.459 8.70744 23.4626 8.70362 23.4663C8.70362 23.4611 8.70362 23.4557 8.70362 23.4505V20.5884C8.70362 20.2832 8.51579 20.0099 8.23146 19.901C5.3821 18.8109 3.46768 16.0339 3.46768 12.9909V8.86297C3.46768 6.89749 4.23696 5.0437 5.63375 3.64301C7.03053 2.24271 8.87922 1.47138 10.8395 1.47138H16.077C18.0373 1.47138 19.8861 2.24271 21.2829 3.64321C22.6799 5.04389 23.4492 6.89768 23.449 8.86297L23.4492 12.9909C23.449 17.0667 20.142 20.3825 16.0772 20.3825Z" fill="white"/>
<path d="M13.6366 3.25439C13.2313 3.25439 12.9028 3.58373 12.9028 3.99009C12.9028 4.39625 13.2313 4.72578 13.6366 4.72578C15.3158 4.72578 16.8947 5.38139 18.082 6.5721C19.2696 7.76261 19.9234 9.3455 19.9234 11.0294C19.9234 11.4355 20.2519 11.765 20.6572 11.765C21.0623 11.765 21.3909 11.4357 21.3909 11.0294C21.3909 8.95256 20.5844 7.0001 19.1198 5.53159C17.6552 4.06308 15.7079 3.25439 13.6366 3.25439Z" fill="white"/>
<path d="M16.7798 11.029C16.7798 11.4352 17.1085 11.7647 17.5136 11.7647C17.9188 11.7647 18.2473 11.4352 18.2473 11.029C18.2473 8.47998 16.1789 6.40625 13.6366 6.40625C13.2313 6.40625 12.9028 6.73559 12.9028 7.14194C12.9028 7.5483 13.2313 7.87763 13.6366 7.87763C15.3698 7.87763 16.7798 9.29135 16.7798 11.029Z" fill="white"/>
<path d="M14.4805 14.5641C13.9014 14.5641 13.3342 14.4735 12.7966 14.2956C12.5343 14.205 12.2363 14.2748 12.0639 14.4512L10.9982 15.2582C9.77531 14.6038 8.99267 13.8195 8.34889 12.6023L9.13201 11.559C9.32915 11.3614 9.39981 11.0721 9.31532 10.8011C9.13645 10.2586 9.04555 9.68941 9.04555 9.1098C9.04555 8.70009 8.71304 8.3667 8.30442 8.3667H6.57511C6.1665 8.3667 5.83398 8.70009 5.83398 9.1098C5.83398 13.8899 9.71305 17.7792 14.4805 17.7792C14.8891 17.7792 15.2216 17.4459 15.2216 17.0362V15.3072C15.2216 14.8975 14.8891 14.5641 14.4805 14.5641Z" fill="white"/>
</svg>
