<svg width="38" height="38" viewBox="0 0 38 38" fill="none" xmlns="http://www.w3.org/2000/svg">
<path d="M31.5815 5.41848C28.0873 1.92436 23.4415 0 18.5 0C13.5585 0 8.91274 1.92436 5.41848 5.41848C1.92436 8.91274 0 13.5585 0 18.5C0 23.4415 1.92436 28.0873 5.41848 31.5815C8.91274 35.0756 13.5585 37 18.5 37C23.4415 37 28.0873 35.0756 31.5815 31.5815C35.0756 28.0873 37 23.4415 37 18.5C37 13.5585 35.0756 8.91274 31.5815 5.41848ZM30.815 30.815C27.5255 34.1045 23.152 35.916 18.5 35.916C13.848 35.916 9.47446 34.1045 6.185 30.815C2.89554 27.5255 1.08398 23.152 1.08398 18.5C1.08398 13.848 2.89554 9.47446 6.185 6.185C9.47446 2.89554 13.848 1.08398 18.5 1.08398C23.152 1.08398 27.5255 2.89554 30.815 6.185C34.1045 9.47446 35.916 13.848 35.916 18.5C35.916 23.152 34.1045 27.5255 30.815 30.815Z" fill="white"/>
<path d="M18.5001 3.47559C10.2157 3.47559 3.47583 10.2154 3.47583 18.4998C3.47583 26.7842 10.2157 33.5241 18.5001 33.5241C26.7845 33.5241 33.5243 26.7842 33.5243 18.4998C33.5243 10.2154 26.7845 3.47559 18.5001 3.47559ZM18.5001 32.4401C10.8134 32.4401 4.55981 26.1865 4.55981 18.4998C4.55981 10.8131 10.8134 4.55957 18.5001 4.55957C24.1707 4.55957 29.0608 7.96328 31.2362 12.8347L29.9784 13.0444C29.257 11.5319 28.2249 10.1508 26.9735 9.03021C26.7505 8.83054 26.4078 8.84948 26.2082 9.07241C26.0085 9.29543 26.0275 9.63804 26.2504 9.83771C27.3568 10.8283 28.2757 12.0414 28.9318 13.3701C28.2499 13.7684 27.8059 14.5049 27.8059 15.3377V18.3205C27.5232 18.4398 27.1578 18.5371 26.607 18.5371C25.7363 18.5371 25.324 18.3017 24.8467 18.0292C24.3125 17.7242 23.7072 17.3786 22.5489 17.3786C21.3911 17.3786 20.7861 17.7243 20.2524 18.0292C19.7754 18.3017 19.3635 18.5371 18.4936 18.5371C17.6247 18.5371 17.2132 18.3018 16.7368 18.0293C16.2034 17.7243 15.5988 17.3786 14.4419 17.3786C13.2844 17.3786 12.6796 17.7243 12.1459 18.0292C11.886 18.1777 11.7958 18.5089 11.9443 18.7687C12.0928 19.0286 12.4238 19.1189 12.6838 18.9703C13.1605 18.6978 13.5723 18.4625 14.4418 18.4625C15.3106 18.4625 15.7221 18.6978 16.1986 18.9703C16.732 19.2754 17.3366 19.6211 18.4936 19.6211C19.6513 19.6211 20.2563 19.2754 20.7901 18.9704C21.2671 18.6979 21.679 18.4625 22.5489 18.4625C23.4196 18.4625 23.8318 18.6979 24.3092 18.9705C24.8433 19.2755 25.4486 19.6211 26.607 19.6211C27.0917 19.6211 27.4812 19.559 27.8059 19.4668V21.662C27.8059 22.495 28.25 23.2316 28.9323 23.6299C26.9829 27.5891 22.9377 30.123 18.5 30.123C12.091 30.123 6.87687 24.9088 6.87687 18.4998C6.87687 18.4998 6.87687 18.4997 6.87687 18.4996C7.39985 18.5757 7.72758 18.7619 8.0923 18.9704C8.62584 19.2755 9.23056 19.6212 10.3878 19.6212C10.6871 19.6212 10.9298 19.3785 10.9298 19.0792C10.9298 18.7799 10.6871 18.5372 10.3878 18.5372C9.51861 18.5372 9.10699 18.3019 8.63039 18.0294C8.19644 17.7813 7.71529 17.5063 6.92818 17.4123C7.47848 11.5113 12.4578 6.8767 18.5001 6.8767C20.6568 6.8767 22.7622 7.47151 24.5885 8.59698C24.8433 8.75401 25.1773 8.67474 25.3343 8.41986C25.4913 8.16498 25.4121 7.83111 25.1572 7.67407C23.1598 6.44332 20.8577 5.79271 18.5001 5.79271C11.4933 5.79271 5.79296 11.4931 5.79296 18.4998C5.79296 25.5066 11.4933 31.2069 18.5001 31.2069C23.4084 31.2069 27.8777 28.3715 29.979 23.9554L31.2362 24.1649C29.0608 29.0364 24.1707 32.4401 18.5001 32.4401ZM29.8893 22.8416C29.3103 22.7451 28.89 22.249 28.89 21.662V15.3378C28.89 14.7508 29.3102 14.2547 29.8893 14.1582L31.6472 13.8652C32.1602 15.3159 32.4403 16.8757 32.4403 18.5C32.4403 20.1242 32.1602 21.6838 31.6472 23.1346L29.8893 22.8416Z" fill="white"/>
<path d="M16.183 12.7446C15.2453 12.7446 14.4824 13.5075 14.4824 14.4452C14.4824 15.3828 15.2453 16.1457 16.183 16.1457C17.1206 16.1457 17.8835 15.3828 17.8835 14.4452C17.8835 13.5075 17.1206 12.7446 16.183 12.7446ZM16.183 15.0618C15.843 15.0618 15.5664 14.7851 15.5664 14.4452C15.5664 14.1052 15.843 13.8286 16.183 13.8286C16.5229 13.8286 16.7995 14.1052 16.7995 14.4452C16.7995 14.7851 16.5229 15.0618 16.183 15.0618Z" fill="white"/>
<path d="M20.238 9.84766C19.6197 9.84766 19.1167 10.3506 19.1167 10.9689C19.1167 11.5872 19.6197 12.0902 20.238 12.0902C20.8563 12.0902 21.3592 11.5872 21.3592 10.9689C21.3592 10.3506 20.8563 9.84766 20.238 9.84766Z" fill="white"/>
<path d="M22.8446 13.3237C22.386 13.3237 22.0129 13.6968 22.0129 14.1554C22.0129 14.614 22.386 14.987 22.8446 14.987C23.3031 14.987 23.6762 14.6139 23.6762 14.1554C23.6762 13.6968 23.3031 13.3237 22.8446 13.3237Z" fill="white"/>
</svg>
