<svg width="38" height="38" viewBox="0 0 38 38" fill="none" xmlns="http://www.w3.org/2000/svg">
<g clip-path="url(#clip0)">
<path d="M32.0156 17.3963L30.0408 16.5416L28.3639 13.2785C27.9107 12.385 26.9913 11.8282 25.9878 11.8346H23.1001V11.0188C23.1001 9.54265 21.9218 8.33838 20.4456 8.33838H6.64179C5.16559 8.33838 4.00017 9.54912 4.00017 11.0188V23.5147C3.98722 24.4147 4.7059 25.1528 5.60586 25.1658C5.61234 25.1658 5.61881 25.1658 5.63176 25.1658H5.97491C5.97491 25.2305 5.96844 25.2564 5.96844 25.2952C5.96196 27.147 7.45759 28.6555 9.30931 28.662C11.161 28.6685 12.6696 27.1729 12.6761 25.3211C12.6761 25.3082 12.6761 25.3017 12.6761 25.2888C12.6761 25.2434 12.6761 25.224 12.6696 25.1593H23.8253C23.8253 25.224 23.8253 25.2499 23.8253 25.2888C23.8188 27.1405 25.3144 28.6491 27.1661 28.6555C29.0179 28.662 30.5264 27.1664 30.5329 25.3147C30.5329 25.3017 30.5329 25.2952 30.5329 25.2823C30.5329 25.237 30.5329 25.2176 30.5329 25.1528H31.3681C32.2681 25.1528 32.9997 24.4212 32.9997 23.5212C32.9997 23.5147 32.9997 23.5083 32.9997 23.4953V18.8984C33.0127 18.2639 32.6242 17.6617 32.0156 17.3963ZM9.32873 27.3736C8.18921 27.3736 7.26982 26.4542 7.26982 25.3147C7.26982 24.1751 8.18921 23.2558 9.32873 23.2558C10.4683 23.2558 11.3876 24.1751 11.3876 25.3147C11.3876 26.4477 10.4618 27.3736 9.32873 27.3736ZM21.8052 23.8838H12.3653C11.8214 22.6989 10.6301 21.9414 9.32873 21.9479C8.02087 21.9414 6.83603 22.6925 6.29217 23.8838H5.63176C5.43105 23.8838 5.29508 23.7284 5.29508 23.5277V20.1933H21.8052V23.8838ZM21.8052 11.0253V18.8984H5.29508V11.0253C5.29508 10.2678 5.88427 9.63976 6.64179 9.63976H20.4456C21.2031 9.64624 21.8117 10.2678 21.8052 11.0188V11.0253ZM23.1001 13.136H25.9878C26.4993 13.1296 26.9784 13.408 27.2179 13.8677L28.5128 16.3733H23.1001V13.136V13.136ZM27.1856 27.3736C26.046 27.3736 25.1267 26.4542 25.1267 25.3147C25.1267 24.1751 26.046 23.2558 27.1856 23.2558C28.3251 23.2558 29.2445 24.1751 29.2445 25.3147C29.2445 26.4477 28.3251 27.3736 27.1856 27.3736ZM31.7113 23.5277C31.7113 23.7284 31.5753 23.8838 31.3746 23.8838H30.2221C29.4387 22.2069 27.4445 21.4817 25.7676 22.2652C25.0554 22.5954 24.4792 23.1716 24.149 23.8838H23.1001V17.6682H29.4452L31.5041 18.5747C31.6336 18.6394 31.7178 18.7818 31.7113 18.9243V23.5277Z" fill="white"/>
</g>
<defs>
<clipPath id="clip0">
<rect width="29" height="29" fill="white" transform="translate(4 4)"/>
</clipPath>
</defs>
</svg>
