<svg width="16" height="16" viewBox="0 0 16 16" fill="none" xmlns="http://www.w3.org/2000/svg">
<g clip-path="url(#clip0)">
<path d="M7.99991 5.3335C6.52919 5.3335 5.33325 6.52978 5.33325 8.00015C5.33325 9.47052 6.52922 10.6668 7.99991 10.6668C9.47059 10.6668 10.6666 9.47052 10.6666 8.00015C10.6666 6.52978 9.47062 5.3335 7.99991 5.3335ZM7.99991 10.0001C6.89703 10.0001 5.99991 9.10302 5.99991 8.00015C5.99991 6.89728 6.89703 6.00015 7.99991 6.00015C9.10278 6.00015 9.9999 6.89728 9.9999 8.00015C9.9999 9.10302 9.10278 10.0001 7.99991 10.0001Z" fill="#303FF0"/>
<path d="M15.6667 7.66666H13.9831C13.8147 4.62475 11.3755 2.18525 8.33334 2.01688V0.333344C8.33334 0.149094 8.18425 0 8 0C7.81575 0 7.66666 0.149094 7.66666 0.333344V2.01688C4.62447 2.18525 2.18525 4.62475 2.01688 7.66666H0.333344C0.149094 7.66666 0 7.81575 0 8C0 8.18425 0.149094 8.33334 0.333344 8.33334H2.01688C2.18525 11.3752 4.62447 13.8147 7.66666 13.9831V15.6667C7.66666 15.8509 7.81575 16 8 16C8.18425 16 8.33334 15.8509 8.33334 15.6667V13.9831C11.3755 13.8147 13.8147 11.3752 13.9831 8.33334H15.6667C15.8509 8.33334 16 8.18425 16 8C16 7.81575 15.8509 7.66666 15.6667 7.66666ZM8 13.3333C5.05925 13.3333 2.66666 10.9407 2.66666 8C2.66666 5.05925 5.05925 2.66666 8 2.66666C10.9407 2.66666 13.3333 5.05925 13.3333 8C13.3333 10.9407 10.9407 13.3333 8 13.3333Z" fill="#303FF0"/>
</g>
<defs>
<clipPath id="clip0">
<rect width="16" height="16" fill="white"/>
</clipPath>
</defs>
</svg>
