<svg width="458" height="340" viewBox="0 0 458 340" fill="none" xmlns="http://www.w3.org/2000/svg">
<path d="M431.836 44.374L60.0986 1.1494C44.2847 -0.633054 29.8072 10.7301 28.0253 26.5494L0.184007 264.285C-1.59784 280.104 9.76142 294.586 25.5753 296.369L397.313 339.816C413.127 341.599 427.604 330.235 429.386 314.416L457.227 76.4582C459.232 60.6389 447.873 46.3792 431.836 44.374Z" fill="#D7F0F9"/>
<path d="M454.555 100.076L457.227 76.4582C459.009 60.6389 447.65 46.1564 431.836 44.3739L60.0985 1.1494C44.2846 -0.633054 29.8072 10.7301 28.0253 26.5494L25.3525 50.1669L454.555 100.076Z" fill="#303FF0"/>
<path d="M69.0076 33.9022C68.5621 38.1356 64.5529 41.2549 60.3211 40.8092C56.0892 40.3636 52.9709 36.3531 53.4164 32.1198C53.8619 27.8865 57.871 24.7672 62.1029 25.2128C66.3348 25.6584 69.453 29.6689 69.0076 33.9022Z" fill="#6874FF"/>
<path d="M106.203 38.3583C105.758 42.5917 101.749 45.711 97.5169 45.2654C93.285 44.8197 90.1667 40.8092 90.6122 36.5759C91.0577 32.3425 95.0668 29.2232 99.2987 29.6689C103.753 30.1145 106.872 33.9022 106.203 38.3583Z" fill="white"/>
<path d="M144.959 42.8144C144.513 47.0477 140.504 50.167 136.272 49.7214C132.04 49.2758 128.922 45.2652 129.368 41.0319C129.813 36.7986 133.822 33.6793 138.054 34.1249C142.509 34.5705 145.404 38.581 144.959 42.8144Z" fill="#BBC0FF"/>
<path d="M146.093 162.221C141.798 166.642 137.214 171.463 132.341 176.685C127.467 181.907 123.244 187.351 119.671 193.017L142.121 195.682L146.093 162.221ZM170.06 138.674L162.999 198.16L173.581 199.416L171.51 216.862L160.928 215.606L158.297 237.77L137.419 235.292L140.051 213.128L97.2947 208.052L99.1449 192.466C101.74 188.52 104.922 184.112 108.69 179.243C112.47 174.278 116.594 169.257 121.064 164.18C125.64 159.02 130.39 154.025 135.314 149.196C140.237 144.366 145.099 140.061 149.898 136.281L170.06 138.674ZM255.344 198.826C253.364 215.509 248.648 227.952 241.197 236.155C233.853 244.274 224.604 247.671 213.45 246.347C202.296 245.023 194.052 239.549 188.717 229.926C183.489 220.218 181.865 207.022 183.846 190.339C184.83 182.045 186.512 174.801 188.891 168.606C191.365 162.423 194.435 157.325 198.102 153.314C201.768 149.302 205.93 146.412 210.587 144.645C215.243 142.877 220.289 142.316 225.723 142.961C236.876 144.285 245.067 149.801 250.295 159.509C255.63 169.133 257.313 182.239 255.344 198.826ZM233.608 196.246C234.197 191.289 234.49 186.78 234.489 182.72C234.499 178.564 234.155 174.946 233.457 171.867C232.759 168.787 231.601 166.329 229.982 164.493C228.363 162.658 226.219 161.582 223.55 161.265C220.881 160.948 218.544 161.492 216.54 162.898C214.632 164.315 212.931 166.433 211.436 169.252C210.036 172.083 208.855 175.52 207.892 179.563C206.94 183.51 206.17 187.962 205.581 192.919C204.993 197.877 204.694 202.433 204.684 206.589C204.674 210.745 205.018 214.362 205.715 217.442C206.509 220.533 207.667 222.991 209.191 224.815C210.809 226.651 212.954 227.727 215.623 228.044C218.292 228.361 220.629 227.816 222.632 226.411C224.636 225.005 226.337 222.887 227.737 220.056C229.136 217.225 230.318 213.789 231.281 209.746C232.244 205.703 233.02 201.204 233.608 196.246ZM308.64 181.516C304.345 185.937 299.76 190.758 294.887 195.98C290.013 201.202 285.79 206.646 282.217 212.312L304.668 214.977L308.64 181.516ZM332.606 157.969L325.545 217.455L336.127 218.712L334.056 236.157L323.474 234.901L320.843 257.065L299.966 254.587L302.597 232.423L259.841 227.347L261.691 211.761C264.286 207.815 267.468 203.408 271.236 198.538C275.016 193.573 279.141 188.552 283.61 183.475C288.186 178.315 292.936 173.32 297.86 168.491C302.784 163.661 307.645 159.356 312.444 155.576L332.606 157.969Z" fill="#E61962"/>
</svg>
