<svg width="168" height="70" viewBox="0 0 168 70" fill="none" xmlns="http://www.w3.org/2000/svg">
<path d="M34.9005 70C15.6588 70 0 54.2966 0 35C0 15.7034 15.6588 0 34.9005 0C54.1422 0 69.801 15.7034 69.801 35C69.801 54.2966 54.1422 70 34.9005 70ZM34.9005 1.9962C16.7867 1.9962 1.99052 16.8346 1.99052 35C1.99052 53.1654 16.7204 67.9373 34.8341 67.9373C52.9479 67.9373 67.6777 53.1654 67.6777 35C67.6777 16.8346 53.0142 1.9962 34.9005 1.9962Z" fill="#303FF0"/>
<path d="M64.0948 30.4751C64.2938 31.939 64.4265 33.4694 64.4265 34.9998C64.4265 51.3021 51.1564 64.6101 34.9005 64.6101C18.6445 64.6101 5.44075 51.3021 5.44075 34.9998C5.44075 33.4694 5.57345 31.939 5.7725 30.4751H4.11374C3.91468 31.939 3.78198 33.4694 3.78198 34.9998C3.78198 52.2337 17.782 66.207 34.9005 66.207C52.0853 66.207 66.019 52.1671 66.019 34.9998C66.019 33.4694 65.8862 31.939 65.6872 30.4751H64.0948V30.4751Z" fill="#303FF0"/>
<path d="M27.6682 49.9713H27.6018C27.2701 49.9713 27.0047 49.7717 26.8056 49.439L15.0615 29.1443L5.30799 31.6063C4.77719 31.7394 4.24638 31.4067 4.04733 30.8744C3.91463 30.3421 4.24638 29.8097 4.77719 29.6101L14.8625 27.0816C14.8625 26.9485 14.9288 26.8154 14.9952 26.7489L19.3743 19.4961C19.5734 19.2299 19.8388 19.0303 20.1706 19.0303C20.5023 19.0303 20.8341 19.1634 21.0331 19.4295L35.6303 39.9238C35.8957 40.323 35.8957 40.7888 35.5639 41.1881L28.4644 49.6386C28.2653 49.8383 27.9336 49.9713 27.6682 49.9713ZM16.654 27.9466L27.8009 47.2432L33.507 40.4561L20.3696 21.8249L16.7867 27.747C16.7203 27.8135 16.7203 27.8801 16.654 27.9466Z" fill="#303FF0"/>
<path d="M42.1327 49.9715C41.8673 49.9715 41.5356 49.8385 41.3365 49.6388L34.237 41.1883C33.9716 40.8556 33.9053 40.3233 34.1707 39.924L48.7015 19.4297C48.9005 19.1636 49.2323 18.9639 49.564 19.0305C49.8958 19.0305 50.2275 19.2301 50.3602 19.4963L54.7394 26.7491C54.8057 26.8822 54.8721 27.0153 54.8721 27.0818L64.9574 29.6103C65.4882 29.7434 65.8199 30.2757 65.6872 30.8746C65.5545 31.4069 65.0237 31.7396 64.4266 31.6065L54.673 29.1445L42.9953 49.5058C42.8626 49.7719 42.5309 49.9715 42.1991 50.0381C42.1991 49.9715 42.1991 49.9715 42.1327 49.9715ZM36.2939 40.4563L42 47.2434L53.147 27.9468C53.147 27.8803 53.0806 27.8803 53.0806 27.8137L49.4977 21.8917L36.2939 40.4563Z" fill="#303FF0"/>
<path d="M49.4977 21.0265H20.3034C19.7726 21.0265 19.3081 20.5607 19.3081 20.0284C19.3081 19.4961 19.7726 19.0303 20.3034 19.0303H49.4977C50.0285 19.0303 50.4929 19.4961 50.4929 20.0284C50.4929 20.5607 50.0948 21.0265 49.4977 21.0265Z" fill="#303FF0"/>
<path d="M34.7678 52.4999C35.4274 52.4999 35.9621 51.9637 35.9621 51.3022C35.9621 50.6407 35.4274 50.1045 34.7678 50.1045C34.1082 50.1045 33.5735 50.6407 33.5735 51.3022C33.5735 51.9637 34.1082 52.4999 34.7678 52.4999Z" fill="white"/>
<path d="M34.7678 59.3534C35.4274 59.3534 35.9621 58.8172 35.9621 58.1557C35.9621 57.4942 35.4274 56.958 34.7678 56.958C34.1082 56.958 33.5735 57.4942 33.5735 58.1557C33.5735 58.8172 34.1082 59.3534 34.7678 59.3534Z" fill="white"/>
<path d="M80.019 30.8308V12H94.2181V30.8973H92.3603V13.597H81.8769V30.8308H80.019Z" fill="#303FF0"/>
<path d="M105.63 31.0971C104.502 31.0971 103.441 30.7644 102.512 30.1655C101.583 29.5667 100.853 28.8347 100.322 27.9697V36.4868H98.5308V17.0572H100.123V19.7188C100.654 18.8538 101.384 18.1218 102.313 17.5895C103.242 17.0572 104.237 16.791 105.232 16.791C106.161 16.791 107.09 16.9906 107.886 17.3899C108.682 17.7891 109.346 18.3214 109.943 18.9868C110.54 19.6522 111.005 20.4507 111.336 21.2492C111.668 22.1142 111.801 22.9792 111.801 23.9108C111.801 25.175 111.536 26.3728 111.005 27.4374C110.474 28.502 109.744 29.3671 108.815 30.0325C107.953 30.7644 106.891 31.0971 105.63 31.0971ZM105.099 29.5001C105.829 29.5001 106.559 29.3671 107.156 29.0344C107.754 28.7017 108.284 28.3024 108.682 27.7701C109.147 27.2378 109.479 26.6389 109.678 25.9735C109.877 25.3081 110.009 24.6427 110.009 23.9108C110.009 23.1788 109.877 22.4469 109.611 21.7815C109.346 21.1161 109.014 20.5173 108.483 19.9849C108.019 19.4526 107.488 19.0534 106.825 18.7872C106.227 18.5211 105.564 18.3214 104.834 18.3214C104.37 18.3214 103.905 18.388 103.374 18.5876C102.91 18.7872 102.379 18.9868 101.981 19.3195C101.517 19.6522 101.185 19.9849 100.853 20.3842C100.521 20.7834 100.389 21.2492 100.322 21.6484V25.907C100.588 26.5724 100.986 27.1712 101.45 27.637C101.915 28.1693 102.512 28.5686 103.109 28.9013C103.772 29.3671 104.436 29.5001 105.099 29.5001Z" fill="#303FF0"/>
<path d="M113.792 26.9047C113.792 26.0397 114.057 25.3078 114.521 24.6424C114.986 24.0435 115.716 23.5112 116.578 23.1785C117.441 22.8458 118.436 22.6462 119.63 22.6462C120.294 22.6462 121.024 22.7127 121.754 22.7793C122.483 22.8458 123.147 23.0454 123.678 23.245V22.0473C123.678 20.9161 123.346 19.9846 122.616 19.2526C121.886 18.5207 120.957 18.2545 119.763 18.2545C119.033 18.2545 118.303 18.3876 117.573 18.6538C116.844 18.9199 116.114 19.3192 115.318 19.8515L114.654 18.5872C115.583 17.9884 116.446 17.5226 117.308 17.1899C118.171 16.8572 119.033 16.7241 119.962 16.7241C121.687 16.7241 123.014 17.1899 124.01 18.188C125.005 19.1861 125.469 20.5169 125.469 22.1804V28.5682C125.469 28.8344 125.536 28.9675 125.602 29.1006C125.735 29.2336 125.867 29.3002 126.133 29.3002V30.7641C125.934 30.7641 125.801 30.8306 125.602 30.8306C125.469 30.8306 125.337 30.8306 125.27 30.8306C124.806 30.8306 124.474 30.6975 124.275 30.4314C124.076 30.1652 123.943 29.899 123.877 29.5663V28.5682C123.28 29.3667 122.483 29.9656 121.488 30.4314C120.493 30.8971 119.498 31.0968 118.436 31.0968C117.573 31.0968 116.777 30.8971 116.047 30.4979C115.318 30.0987 114.787 29.6329 114.389 28.9675C113.991 28.3021 113.792 27.6367 113.792 26.9047ZM123.081 27.9694C123.28 27.7032 123.412 27.5036 123.545 27.2374C123.678 27.0378 123.678 26.8382 123.678 26.6386V24.6424C123.081 24.4428 122.483 24.2431 121.82 24.1101C121.156 23.977 120.493 23.9104 119.896 23.9104C118.635 23.9104 117.573 24.1766 116.777 24.6424C115.981 25.1082 115.583 25.8401 115.583 26.7051C115.583 27.2374 115.716 27.7032 115.981 28.169C116.246 28.6348 116.645 28.9675 117.175 29.3002C117.706 29.5663 118.303 29.766 118.967 29.766C119.829 29.766 120.626 29.5663 121.422 29.2336C122.085 28.9009 122.616 28.5017 123.081 27.9694Z" fill="#303FF0"/>
<path d="M137.28 30.831V25.0421C136.682 25.3082 136.152 25.5078 135.488 25.6409C134.825 25.774 134.227 25.8405 133.498 25.8405C131.972 25.8405 130.844 25.4413 130.047 24.6428C129.251 23.8443 128.919 22.6466 128.919 21.0497V16.9907H130.711V20.85C130.711 22.1143 130.976 22.9793 131.441 23.5782C131.972 24.1105 132.768 24.4432 133.896 24.4432C134.493 24.4432 135.156 24.3767 135.754 24.2436C136.351 24.1105 136.882 23.9109 137.28 23.7113V17.0573H139.071V30.831H137.28Z" fill="#303FF0"/>
<path d="M142.986 30.8309V17.0571H144.777V22.9792H146.834L151.479 17.0571H153.536L148.294 23.7777L154.199 30.8974H152.076L146.834 24.7092H144.777V30.8974H142.986V30.8309Z" fill="#303FF0"/>
<path d="M155.659 26.9047C155.659 26.0397 155.924 25.3078 156.389 24.6424C156.853 24.0435 157.583 23.5112 158.445 23.1785C159.308 22.8458 160.303 22.6462 161.498 22.6462C162.161 22.6462 162.891 22.7127 163.621 22.7793C164.351 22.8458 165.014 23.0454 165.545 23.245V22.0473C165.545 20.9161 165.213 19.9846 164.483 19.2526C163.82 18.5872 162.825 18.2545 161.63 18.2545C160.9 18.2545 160.171 18.3876 159.441 18.6538C158.711 18.9199 157.981 19.3192 157.185 19.8515L156.521 18.5872C157.45 17.9884 158.313 17.5226 159.175 17.1899C160.038 16.8572 160.9 16.7241 161.829 16.7241C163.554 16.7241 164.881 17.1899 165.877 18.188C166.872 19.1861 167.336 20.5169 167.336 22.1804V28.5682C167.336 28.8344 167.403 28.9675 167.469 29.1006C167.602 29.2336 167.735 29.3002 168 29.3002V30.7641C167.801 30.7641 167.668 30.8306 167.469 30.8306C167.336 30.8306 167.204 30.8306 167.137 30.8306C166.673 30.8306 166.341 30.6975 166.142 30.4314C165.943 30.1652 165.81 29.899 165.744 29.5663V28.5682C165.147 29.3667 164.351 29.9656 163.355 30.4314C162.36 30.8971 161.365 31.0968 160.303 31.0968C159.441 31.0968 158.644 30.8971 157.915 30.4979C157.185 30.0987 156.654 29.6329 156.256 28.9675C155.858 28.3686 155.659 27.6367 155.659 26.9047ZM164.881 27.9694C165.08 27.7032 165.213 27.5036 165.346 27.2374C165.479 27.0378 165.479 26.8382 165.479 26.6386V24.6424C164.881 24.4428 164.284 24.2431 163.621 24.1101C162.957 23.977 162.294 23.9104 161.697 23.9104C160.436 23.9104 159.374 24.1766 158.578 24.6424C157.782 25.1747 157.384 25.8401 157.384 26.7051C157.384 27.2374 157.517 27.7032 157.782 28.169C158.047 28.6348 158.445 28.9675 158.976 29.3002C159.507 29.5663 160.104 29.766 160.768 29.766C161.63 29.766 162.426 29.5663 163.223 29.2336C163.886 28.9009 164.483 28.5017 164.881 27.9694Z" fill="#303FF0"/>
<path d="M78.4929 47.8652C78.4929 46.734 78.692 45.6028 79.0901 44.4716C79.4882 43.3405 80.0853 42.3424 80.8815 41.4108C81.6778 40.4792 82.673 39.7473 83.801 39.215C84.9289 38.6827 86.2559 38.4165 87.7157 38.4165C89.4408 38.4165 90.9668 38.8157 92.2275 39.5477C93.4882 40.2796 94.4171 41.2777 95.0806 42.542L92.2275 44.4716C91.8958 43.7397 91.4977 43.2074 90.9669 42.8081C90.436 42.4089 89.9052 42.0762 89.3081 41.9431C88.7109 41.7435 88.1801 41.677 87.583 41.677C86.6541 41.677 85.8578 41.8766 85.1943 42.2093C84.5308 42.6085 83.9337 43.0743 83.4692 43.6732C83.0048 44.272 82.673 44.9374 82.474 45.6694C82.2749 46.4013 82.1422 47.1332 82.1422 47.9317C82.1422 48.7967 82.2749 49.5952 82.5403 50.3272C82.8057 51.0591 83.2038 51.791 83.6683 52.3899C84.1327 52.9887 84.7299 53.4545 85.3934 53.7872C86.0569 54.1199 86.8531 54.3195 87.6493 54.3195C88.2465 54.3195 88.8436 54.253 89.4408 54.0534C90.0379 53.8538 90.5687 53.5211 91.0996 53.1218C91.6304 52.7226 92.0285 52.1237 92.2939 51.4583L95.2796 53.1884C94.8815 54.1199 94.2844 54.9184 93.4882 55.5838C92.6256 56.2492 91.6967 56.715 90.6351 57.0477C89.5735 57.3804 88.5782 57.58 87.5166 57.58C86.1896 57.58 84.9289 57.3138 83.801 56.715C82.673 56.1161 81.7441 55.3842 80.9479 54.4526C80.1517 53.5211 79.4882 52.4564 79.0901 51.3253C78.692 50.1941 78.4929 48.9964 78.4929 47.8652Z" fill="#303FF0"/>
<path d="M103.839 57.7127C102.711 57.7127 101.716 57.5131 100.787 57.1804C99.8578 56.7811 99.1279 56.3153 98.4644 55.5834C97.8672 54.918 97.3364 54.1861 97.0047 53.3211C96.6729 52.456 96.4739 51.591 96.4739 50.5929C96.4739 49.6614 96.6729 48.7298 97.0047 47.8648C97.3364 46.9998 97.8009 46.2678 98.4644 45.6024C99.0616 44.937 99.8578 44.4047 100.787 44.0055C101.716 43.6062 102.711 43.4731 103.839 43.4731C104.967 43.4731 105.962 43.6728 106.891 44.0055C107.82 44.3382 108.55 44.8705 109.213 45.6024C109.877 46.2678 110.341 46.9998 110.673 47.8648C111.005 48.7298 111.137 49.6614 111.137 50.5929C111.137 51.5245 111.005 52.456 110.673 53.3211C110.341 54.1861 109.877 54.918 109.213 55.5834C108.616 56.2488 107.82 56.7811 106.891 57.1804C105.962 57.5131 104.967 57.7127 103.839 57.7127ZM100.19 50.5929C100.19 51.3914 100.322 52.1233 100.654 52.7222C100.986 53.3211 101.384 53.8534 101.981 54.1861C102.512 54.5188 103.175 54.7184 103.839 54.7184C104.502 54.7184 105.099 54.5188 105.697 54.1861C106.227 53.8534 106.692 53.3211 107.024 52.7222C107.355 52.1233 107.488 51.3914 107.488 50.5929C107.488 49.7944 107.355 49.129 107.024 48.4636C106.692 47.8648 106.227 47.3325 105.697 46.9998C105.166 46.6671 104.569 46.4674 103.839 46.4674C103.175 46.4674 102.512 46.6671 101.981 46.9998C101.45 47.3325 100.986 47.8648 100.654 48.4636C100.322 49.0625 100.19 49.7944 100.19 50.5929Z" fill="#303FF0"/>
<path d="M121.223 57.4469V52.5229C120.692 52.7225 120.161 52.9222 119.63 53.0552C119.099 53.1883 118.502 53.1883 117.772 53.1883C116.313 53.1883 115.185 52.7891 114.322 51.9906C113.46 51.1921 113.062 50.0609 113.062 48.5305V43.6066H116.644V47.9982C116.644 48.7967 116.844 49.3956 117.175 49.7948C117.507 50.194 118.104 50.3937 118.834 50.3937C119.232 50.3937 119.697 50.3271 120.095 50.2606C120.493 50.194 120.891 50.061 121.156 49.8613V43.54H124.739V57.3138H121.223V57.4469Z" fill="#303FF0"/>
<path d="M127.99 57.4466V43.6729H131.573V52.7223L137.81 43.6729H141.062V57.4466H137.479V48.5968L131.308 57.4466H127.99Z" fill="#303FF0"/>
</svg>
