<svg width="162" height="68" viewBox="0 0 162 68" fill="none" xmlns="http://www.w3.org/2000/svg">
<path d="M33.654 68C15.0995 68 0 52.7452 0 34C0 15.2548 15.0995 0 33.654 0C52.2085 0 67.3081 15.2548 67.3081 34C67.3081 52.7452 52.2085 68 33.654 68ZM33.654 1.93916C16.1872 1.93916 1.91943 16.3536 1.91943 34C1.91943 51.6464 16.1232 65.9962 33.59 65.9962C51.0569 65.9962 65.2607 51.6464 65.2607 34C65.2607 16.3536 51.1209 1.93916 33.654 1.93916Z" fill="white"/>
<path d="M61.8052 29.6045C61.9972 31.0265 62.1252 32.5132 62.1252 33.9999C62.1252 49.8364 49.3289 62.7642 33.6536 62.7642C17.9782 62.7642 5.24601 49.8364 5.24601 33.9999C5.24601 32.5132 5.37397 31.0265 5.56592 29.6045H3.96639C3.77445 31.0265 3.64648 32.5132 3.64648 33.9999C3.64648 50.7414 17.1465 64.3155 33.6536 64.3155C50.2247 64.3155 63.6607 50.6767 63.6607 33.9999C63.6607 32.5132 63.5327 31.0265 63.3408 29.6045H61.8052V29.6045Z" fill="white"/>
<path d="M26.6805 48.5436H26.6165C26.2966 48.5436 26.0407 48.3497 25.8487 48.0265L14.5241 28.3117L5.11886 30.7033C4.60701 30.8326 4.09516 30.5094 3.90322 29.9923C3.77525 29.4752 4.09516 28.9581 4.60701 28.7641L14.3321 26.3079C14.3321 26.1786 14.3961 26.0493 14.4601 25.9847L18.6828 18.939C18.8748 18.6805 19.1307 18.4866 19.4506 18.4866C19.7705 18.4866 20.0904 18.6159 20.2824 18.8744L34.3582 38.7832C34.6141 39.171 34.6141 39.6235 34.2942 40.0113L27.4482 48.2204C27.2563 48.4143 26.9364 48.5436 26.6805 48.5436ZM16.0596 27.1482L26.8084 45.8934L32.3108 39.3003L19.6426 21.2014L16.1876 26.9543C16.1236 27.0189 16.1236 27.0835 16.0596 27.1482Z" fill="white"/>
<path d="M40.6278 48.5439C40.3718 48.5439 40.0519 48.4147 39.86 48.2207L33.014 40.0116C32.7581 39.6884 32.6941 39.1713 32.95 38.7835L46.9619 18.8747C47.1538 18.6162 47.4737 18.4223 47.7936 18.4869C48.1135 18.4869 48.4334 18.6808 48.5614 18.9394L52.7842 25.985C52.8481 26.1143 52.9121 26.2435 52.9121 26.3082L62.6372 28.7645C63.1491 28.8937 63.469 29.4108 63.341 29.9926C63.2131 30.5097 62.7012 30.8329 62.1254 30.7036L52.7202 28.312L41.4595 48.0915C41.3316 48.35 41.0116 48.5439 40.6917 48.6086C40.6917 48.5439 40.6917 48.5439 40.6278 48.5439ZM34.9974 39.3006L40.4998 45.8937L51.2486 27.1485C51.2486 27.0839 51.1846 27.0839 51.1846 27.0192L47.7297 21.2664L34.9974 39.3006Z" fill="white"/>
<path d="M47.7295 20.4257H19.5779C19.066 20.4257 18.6182 19.9733 18.6182 19.4562C18.6182 18.939 19.066 18.4866 19.5779 18.4866H47.7295C48.2414 18.4866 48.6893 18.939 48.6893 19.4562C48.6893 19.9733 48.3054 20.4257 47.7295 20.4257Z" fill="white"/>
<path d="M33.5257 51.0001C34.1617 51.0001 34.6773 50.4792 34.6773 49.8366C34.6773 49.194 34.1617 48.6731 33.5257 48.6731C32.8896 48.6731 32.374 49.194 32.374 49.8366C32.374 50.4792 32.8896 51.0001 33.5257 51.0001Z" fill="white"/>
<path d="M33.5257 57.6576C34.1617 57.6576 34.6773 57.1366 34.6773 56.4941C34.6773 55.8515 34.1617 55.3306 33.5257 55.3306C32.8896 55.3306 32.374 55.8515 32.374 56.4941C32.374 57.1366 32.8896 57.6576 33.5257 57.6576Z" fill="white"/>
<path d="M77.1611 29.9498V11.657H90.8531V30.0144H89.0616V13.2083H78.9526V29.9498H77.1611Z" fill="white"/>
<path d="M101.858 30.2086C100.77 30.2086 99.7463 29.8854 98.8506 29.3037C97.9548 28.7219 97.2511 28.0109 96.7392 27.1706V35.4444H95.0117V16.5698H96.5473V19.1554C97.0591 18.3151 97.7629 17.6041 98.6586 17.0869C99.5544 16.5698 100.514 16.3113 101.474 16.3113C102.37 16.3113 103.265 16.5052 104.033 16.893C104.801 17.2809 105.441 17.798 106.016 18.4444C106.592 19.0907 107.04 19.8664 107.36 20.6421C107.68 21.4824 107.808 22.3227 107.808 23.2276C107.808 24.4558 107.552 25.6193 107.04 26.6535C106.528 27.6877 105.825 28.528 104.929 29.1744C104.097 29.8854 103.073 30.2086 101.858 30.2086ZM101.346 28.6573C102.05 28.6573 102.753 28.528 103.329 28.2048C103.905 27.8816 104.417 27.4938 104.801 26.9767C105.249 26.4596 105.569 25.8778 105.761 25.2314C105.952 24.585 106.08 23.9387 106.08 23.2276C106.08 22.5166 105.952 21.8056 105.697 21.1592C105.441 20.5128 105.121 19.9311 104.609 19.4139C104.161 18.8968 103.649 18.509 103.009 18.2504C102.434 17.9919 101.794 17.798 101.09 17.798C100.642 17.798 100.194 17.8626 99.6823 18.0565C99.2345 18.2504 98.7226 18.4444 98.3387 18.7676C97.8909 19.0907 97.571 19.4139 97.2511 19.8018C96.9311 20.1896 96.8032 20.6421 96.7392 21.0299V25.1668C96.9951 25.8132 97.379 26.3949 97.8269 26.8474C98.2747 27.3645 98.8506 27.7523 99.4264 28.0755C100.066 28.528 100.706 28.6573 101.346 28.6573Z" fill="white"/>
<path d="M109.728 26.1358C109.728 25.2955 109.983 24.5845 110.431 23.9381C110.879 23.3564 111.583 22.8393 112.415 22.5161C113.246 22.1929 114.206 21.9989 115.358 21.9989C115.998 21.9989 116.701 22.0636 117.405 22.1282C118.109 22.1929 118.749 22.3868 119.261 22.5807V21.4172C119.261 20.3183 118.941 19.4134 118.237 18.7024C117.533 17.9913 116.637 17.7328 115.486 17.7328C114.782 17.7328 114.078 17.8621 113.374 18.1206C112.671 18.3792 111.967 18.767 111.199 19.2841L110.559 18.056C111.455 17.4742 112.287 17.0218 113.119 16.6986C113.95 16.3754 114.782 16.2461 115.678 16.2461C117.341 16.2461 118.621 16.6986 119.581 17.6681C120.54 18.6377 120.988 19.9305 120.988 21.5465V27.7518C120.988 28.0104 121.052 28.1396 121.116 28.2689C121.244 28.3982 121.372 28.4628 121.628 28.4628V29.8849C121.436 29.8849 121.308 29.9495 121.116 29.9495C120.988 29.9495 120.86 29.9495 120.796 29.9495C120.348 29.9495 120.028 29.8202 119.837 29.5617C119.645 29.3031 119.517 29.0446 119.453 28.7214V27.7518C118.877 28.5275 118.109 29.1092 117.149 29.5617C116.19 30.0142 115.23 30.2081 114.206 30.2081C113.374 30.2081 112.607 30.0142 111.903 29.6263C111.199 29.2385 110.687 28.786 110.303 28.1396C109.919 27.4932 109.728 26.8469 109.728 26.1358ZM118.685 27.1701C118.877 26.9115 119.005 26.7176 119.133 26.459C119.261 26.2651 119.261 26.0712 119.261 25.8773V23.9381C118.685 23.7442 118.109 23.5503 117.469 23.421C116.829 23.2917 116.19 23.2271 115.614 23.2271C114.398 23.2271 113.374 23.4856 112.607 23.9381C111.839 24.3906 111.455 25.1016 111.455 25.9419C111.455 26.459 111.583 26.9115 111.839 27.364C112.095 27.8164 112.479 28.1396 112.991 28.4628C113.502 28.7214 114.078 28.9153 114.718 28.9153C115.55 28.9153 116.318 28.7214 117.085 28.3982C117.725 28.075 118.237 27.6872 118.685 27.1701Z" fill="white"/>
<path d="M132.377 29.9497V24.3262C131.801 24.5847 131.289 24.7786 130.65 24.9079C130.01 25.0372 129.434 25.1018 128.73 25.1018C127.259 25.1018 126.171 24.714 125.403 23.9383C124.635 23.1627 124.315 21.9992 124.315 20.4478V16.5049H126.043V20.2539C126.043 21.4821 126.299 22.3224 126.747 22.9041C127.259 23.4212 128.026 23.7444 129.114 23.7444C129.69 23.7444 130.33 23.6798 130.905 23.5505C131.481 23.4212 131.993 23.2273 132.377 23.0334V16.5695H134.105V29.9497H132.377Z" fill="white"/>
<path d="M137.879 29.9498V16.5696H139.606V22.3224H141.59L146.068 16.5696H148.052L142.997 23.0981L148.692 30.0144H146.644L141.59 24.003H139.606V30.0144H137.879V29.9498Z" fill="white"/>
<path d="M150.1 26.1358C150.1 25.2955 150.356 24.5845 150.803 23.9381C151.251 23.3564 151.955 22.8393 152.787 22.5161C153.619 22.1929 154.578 21.9989 155.73 21.9989C156.37 21.9989 157.074 22.0636 157.777 22.1282C158.481 22.1929 159.121 22.3868 159.633 22.5807V21.4172C159.633 20.3183 159.313 19.4134 158.609 18.7024C157.969 18.056 157.01 17.7328 155.858 17.7328C155.154 17.7328 154.45 17.8621 153.747 18.1206C153.043 18.3792 152.339 18.767 151.571 19.2841L150.931 18.056C151.827 17.4742 152.659 17.0218 153.491 16.6986C154.322 16.3754 155.154 16.2461 156.05 16.2461C157.713 16.2461 158.993 16.6986 159.953 17.6681C160.912 18.6377 161.36 19.9305 161.36 21.5465V27.7518C161.36 28.0104 161.424 28.1396 161.488 28.2689C161.616 28.3982 161.744 28.4628 162 28.4628V29.8849C161.808 29.8849 161.68 29.9495 161.488 29.9495C161.36 29.9495 161.232 29.9495 161.168 29.9495C160.72 29.9495 160.401 29.8202 160.209 29.5617C160.017 29.3031 159.889 29.0446 159.825 28.7214V27.7518C159.249 28.5275 158.481 29.1092 157.521 29.5617C156.562 30.0142 155.602 30.2081 154.578 30.2081C153.747 30.2081 152.979 30.0142 152.275 29.6263C151.571 29.2385 151.059 28.786 150.675 28.1396C150.292 27.5579 150.1 26.8469 150.1 26.1358ZM158.993 27.1701C159.185 26.9115 159.313 26.7176 159.441 26.459C159.569 26.2651 159.569 26.0712 159.569 25.8773V23.9381C158.993 23.7442 158.417 23.5503 157.777 23.421C157.138 23.2917 156.498 23.2271 155.922 23.2271C154.706 23.2271 153.683 23.4856 152.915 23.9381C152.147 24.4552 151.763 25.1016 151.763 25.9419C151.763 26.459 151.891 26.9115 152.147 27.364C152.403 27.8164 152.787 28.1396 153.299 28.4628C153.81 28.7214 154.386 28.9153 155.026 28.9153C155.858 28.9153 156.626 28.7214 157.393 28.3982C158.033 28.075 158.609 27.6872 158.993 27.1701Z" fill="white"/>
<path d="M75.6895 46.4973C75.6895 45.3984 75.8814 44.2996 76.2653 43.2007C76.6492 42.1019 77.225 41.1323 77.9928 40.2273C78.7605 39.3224 79.7203 38.6114 80.8079 38.0943C81.8956 37.5772 83.1752 37.3186 84.5828 37.3186C86.2463 37.3186 87.7179 37.7064 88.9335 38.4175C90.1492 39.1285 91.0449 40.0981 91.6847 41.3262L88.9335 43.2007C88.6136 42.4897 88.2298 41.9726 87.7179 41.5848C87.2061 41.1969 86.6942 40.8737 86.1184 40.7445C85.5425 40.5505 85.0307 40.4859 84.4549 40.4859C83.5591 40.4859 82.7914 40.6798 82.1515 41.003C81.5117 41.3908 80.9359 41.8433 80.488 42.4251C80.0402 43.0068 79.7203 43.6532 79.5283 44.3642C79.3364 45.0753 79.2084 45.7863 79.2084 46.5619C79.2084 47.4023 79.3364 48.1779 79.5923 48.8889C79.8482 49.6 80.2321 50.311 80.68 50.8927C81.1278 51.4745 81.7037 51.927 82.3435 52.2502C82.9833 52.5734 83.7511 52.7673 84.5188 52.7673C85.0947 52.7673 85.6705 52.7026 86.2463 52.5087C86.8222 52.3148 87.334 51.9916 87.8459 51.6038C88.3577 51.2159 88.7416 50.6342 88.9975 49.9878L91.8767 51.6684C91.4928 52.5734 90.917 53.349 90.1492 53.9954C89.3174 54.6418 88.4217 55.0943 87.398 55.4175C86.3743 55.7407 85.4146 55.9346 84.3909 55.9346C83.1113 55.9346 81.8956 55.676 80.8079 55.0943C79.7203 54.5125 78.8245 53.8015 78.0568 52.8965C77.289 51.9916 76.6492 50.9574 76.2653 49.8585C75.8814 48.7597 75.6895 47.5962 75.6895 46.4973Z" fill="white"/>
<path d="M100.13 56.0637C99.0425 56.0637 98.0828 55.8697 97.1871 55.5465C96.2914 55.1587 95.5876 54.7062 94.9478 53.9952C94.3719 53.3488 93.8601 52.6378 93.5402 51.7975C93.2203 50.9572 93.0283 50.1169 93.0283 49.1473C93.0283 48.2424 93.2203 47.3374 93.5402 46.4971C93.8601 45.6568 94.3079 44.9458 94.9478 44.2994C95.5236 43.653 96.2914 43.1359 97.1871 42.7481C98.0828 42.3602 99.0425 42.231 100.13 42.231C101.218 42.231 102.178 42.4249 103.073 42.7481C103.969 43.0713 104.673 43.5884 105.313 44.2994C105.953 44.9458 106.4 45.6568 106.72 46.4971C107.04 47.3374 107.168 48.2424 107.168 49.1473C107.168 50.0522 107.04 50.9572 106.72 51.7975C106.4 52.6378 105.953 53.3488 105.313 53.9952C104.737 54.6416 103.969 55.1587 103.073 55.5465C102.178 55.8697 101.218 56.0637 100.13 56.0637ZM96.6113 49.1473C96.6113 49.923 96.7392 50.634 97.0591 51.2158C97.379 51.7975 97.7629 52.3146 98.3387 52.6378C98.8506 52.961 99.4904 53.1549 100.13 53.1549C100.77 53.1549 101.346 52.961 101.922 52.6378C102.434 52.3146 102.881 51.7975 103.201 51.2158C103.521 50.634 103.649 49.923 103.649 49.1473C103.649 48.3716 103.521 47.7253 103.201 47.0789C102.881 46.4971 102.434 45.98 101.922 45.6568C101.41 45.3336 100.834 45.1397 100.13 45.1397C99.4904 45.1397 98.8506 45.3336 98.3387 45.6568C97.8269 45.98 97.379 46.4971 97.0591 47.0789C96.7392 47.6606 96.6113 48.3716 96.6113 49.1473Z" fill="white"/>
<path d="M116.893 55.8054V51.0221C116.381 51.2161 115.869 51.41 115.358 51.5392C114.846 51.6685 114.27 51.6685 113.566 51.6685C112.159 51.6685 111.071 51.2807 110.239 50.505C109.407 49.7294 109.023 48.6305 109.023 47.1438V42.3605H112.478V46.6267C112.478 47.4024 112.67 47.9841 112.99 48.3719C113.31 48.7598 113.886 48.9537 114.59 48.9537C114.974 48.9537 115.422 48.8891 115.805 48.8244C116.189 48.7598 116.573 48.6305 116.829 48.4366V42.2959H120.284V55.6761H116.893V55.8054Z" fill="white"/>
<path d="M123.419 55.8053V42.425H126.874V51.2159L132.888 42.425H136.023V55.8053H132.568V47.2083L126.618 55.8053H123.419Z" fill="white"/>
</svg>
