<svg version="1" xmlns="http://www.w3.org/2000/svg" width="933.333" height="933.333" viewBox="0 0 700.000000 700.000000"><path d="M327.9.4c-.2.2-4 .7-8.4 1-14.7 1.2-21.8 2.2-38 5.2-32.8 6-78.5 23.1-104.9 39.2-3.7 2.3-7 4.2-7.2 4.2-.3 0-5.8 3.5-12.2 7.7C91.7 101.1 42.4 165.6 17.6 240.5c-3.3 9.9-8 26.5-9.1 32.6-.3 1.3-1.4 6.9-2.5 12.4-1.8 9-2.5 13.6-3.5 23-2.8 24.3-2.7 63.9 0 82.9.3 1.7.7 4.9.9 7.1 1 8.3 1.8 13.1 2.6 16.5.5 1.9 1.2 4.8 1.4 6.5 5.7 31.5 22.6 75.4 41 105.9 3.6 6 6.6 11.1 6.6 11.3 0 .2.4.9 1 1.6.5.7 4.6 6.4 9.1 12.7 17.1 24.3 36.5 45.2 59.4 64.4 15 12.6 32.4 25.4 41 30.2 1.1.6 5.4 3.1 9.5 5.6 18.3 10.8 40.5 20.9 62.3 28.3 12.4 4.2 32.9 9.8 40 11 1.8.3 6.4 1.2 10.2 2 3.9.7 9.1 1.6 11.8 1.9 4.5.6 10.6 1.4 17.2 2.2 1.7.2 14 .6 27.5.8 22.5.3 28.5.1 45.6-1.9 11.9-1.4 20.8-2.6 21.5-3.1.4-.2 2.5-.6 4.8-.9 6.9-.9 30.8-7.3 44.8-12 22.3-7.6 46.1-18.5 64.2-29.4 4.6-2.8 8.6-5.1 8.7-5.1 1.4 0 33.3-23.4 40.8-30 30.7-26.7 54.9-55.4 74.5-88.5 27.2-45.7 43.5-96.7 47.9-149 1.6-20.2.8-57.4-1.8-75-.6-3.9-1.3-8.8-1.6-11-.4-3.4-1.3-7.9-4.9-24.5-3.2-15-10.8-38-18.7-56.5-22.8-53.6-57.9-99.6-104.5-136.8C555 67.4 534.7 53 533.5 53c-.2 0-3.2-1.8-6.6-4-5.9-3.8-30.9-16.7-39.4-20.2-13.6-5.8-19.9-8.1-29.8-11.4-6.2-2-11.9-3.8-12.7-3.9-.8-.2-6.8-1.8-13.3-3.4-11.2-2.9-30.2-6.4-41.2-7.6-2.7-.3-6.3-.8-8-1-3.9-.6-54.1-1.6-54.6-1.1zm52.6 21c1.7.2 5.5.7 8.5 1.1 70.9 8.2 140.1 42.3 191.3 94 29.5 29.8 55 67.5 69.7 103 1.8 4.4 3.8 9.3 4.5 11 5.2 11.9 12.9 38.9 16.1 56 .9 4.9 1.8 9.7 1.9 10.5 4.4 22.9 5.2 64.4 1.9 93-1.1 9.2-4.6 27.9-7.4 39.5-26.4 107.4-106.9 195.5-212 232-9.6 3.3-29 8.8-35 9.9-1.4.2-4.6.9-7.2 1.5-6.2 1.4-22.6 3.9-31.3 4.6-3.8.4-8.3.9-10 1.1-3.8.5-41.6.5-47.5-.1-13-1.2-31.6-3.7-39.5-5.4-33-7.1-55-14.7-83.5-29-19.8-10-34.1-19-53-33.5-13.8-10.6-16-12.5-32.5-29.1C78.9 544.8 52 500.9 36.1 452c-3.2-10-8.7-30.4-9.4-35.5-.3-1.7-.8-4.1-1.1-5.5-1-4.1-1.5-7.6-4.1-28-1.9-14.6-1.3-57.3.9-73.5.3-1.7.7-5 1.1-7.5.5-4 2.8-16.9 3.9-22.5 2.3-11.3 12.3-43.7 15.1-49.2.8-1.6 1.5-3.4 1.5-4.1 0-.7.4-2 1-3 .5-.9 3.4-7 6.4-13.4 3-6.4 7.8-15.9 10.6-21 5.1-9.1 19.2-30.7 23.4-36 1.1-1.4 3.2-4.1 4.6-5.9 6.2-8.3 20.7-24.3 30.7-33.9 13.5-13 15.7-15 26.3-23 4.7-3.6 8.7-6.7 9-7 1.3-1.4 19.5-13.3 27.4-17.9 35.9-21.1 80.8-37 117.6-41.6 2.5-.3 6.1-.8 8-1 1.9-.3 7.1-.8 11.5-1.1 4.4-.4 8.2-.8 8.4-1 .6-.5 47.9.4 51.6 1z"/><path d="M198.5 191c-1.1.4-2.7 1.6-3.6 2.6-1.8 2.2-42.5 69.2-44.8 74.1-1.6 3.1-2 3.2-26.1 9.3-13.5 3.4-25.2 6.3-26 6.5-9 2-50.7 12.8-51.9 13.4-3.4 1.9-5.4 5.2-5.6 9.3-.2 2.4-.7 8.3-1.1 13.3-1.1 11.2-1.2 51.6-.1 60.9.7 6.2 1.6 13.2 3.2 24.1 1.9 12.7 9.4 39.6 15.7 56.5 8.8 23.6 28.7 59.7 41.5 75.5.4.5 3.3 4.1 6.3 8 7.3 9.4 11.5 14 24.5 27 34.1 34.1 75 59.4 120.6 74.6 11 3.7 31.5 9.1 38.9 10.3 27.4 4.5 33.9 5.1 59.5 5.1 25.7 0 35.2-.8 55.5-4.6 61.8-11.5 118.7-41.5 162.9-85.8 12.7-12.7 14.4-14.5 21.6-23.6 2.2-2.8 4.3-5.2 4.6-5.5 1.9-1.7 14.9-20.7 21.2-31.1 9-15 15.3-27.4 21.4-42.3 6.1-14.8 13.1-36.7 15-46.5.2-1.4.6-2.7.8-3.1.2-.3 1.1-4.6 1.9-9.5.9-5 1.8-9.9 2-11 1.1-6 2.5-18.8 3.1-29 .6-10 .6-32.2 0-39.5-.6-8.5-1.5-17.3-2-19.5-.2-1.1-.4-3.4-.4-5.1-.2-6-4.1-8.7-17.6-11.9-6.6-1.6-12.4-3-13-3.1-.5-.2-18.1-4.6-38.9-9.8-20.8-5.3-38-9.7-38.2-9.8-.2-.3-18-29.7-22.3-37-16.8-28.4-25-41.2-27.1-42.3-2-1-32.1-1.2-151-1.2-81.7 0-149.4.3-150.5.7zM475 210.7c0 .4-6.7 10-30 42.8-6.2 8.8-12.3 17.3-13.4 19-1.2 1.6-2.4 3.1-2.8 3.3-.5.2-.8 1-.8 1.7s-.3 1.5-.8 1.7c-.4.1-9 12-19.1 26.3-19.7 27.8-37.1 52.3-45.8 64.5-3 4.1-7 9.9-8.9 12.7-1.9 2.9-3.8 5.3-4.3 5.3-.4 0-15.1-20.1-32.6-44.8-17.5-24.6-33.1-46.5-34.7-48.7-1.6-2.2-10.2-14.2-19.1-26.7-8.9-12.5-21.4-30-27.7-38.9-6.3-8.9-11.8-16.7-12.2-17.4-.6-1 24.5-1.3 125.7-1.3 69.6.1 126.5.2 126.5.5zm-245.5 44c13.8 19.6 26.6 37.9 28.6 40.7 3.9 5.6 29.2 41.4 39.9 56.6 15.7 22.2 35.7 50.6 36.3 51.6.3.6-1.4 3.5-3.9 6.5s-5.3 6.3-6.2 7.4c-1 1.1-4.2 4.9-7.2 8.5-3.1 3.6-6.4 7.6-7.5 8.9-2.7 3.2-13.7 16.3-15 17.8-.5.6-4.4 5.2-8.5 10.2-4.1 4.9-7.7 9-8 9-.4 0-29.2-49.5-44.1-75.8-2.6-4.6-12.8-22.3-22.9-39.6-2.9-5-6.2-10.8-7.5-13-1.2-2.2-8.9-15.7-17.2-30-8.2-14.3-16-27.9-17.3-30.2l-2.3-4.1 13-21.4c7.1-11.7 15.3-25.2 18.2-30.1 2.9-4.8 5.5-8.7 5.9-8.7.4.1 12 16.1 25.7 35.7zm301.1 23.8c.4.9-2.6 7-7.1 14.7-4.3 7.3-8.5 14.6-9.5 16.3-.9 1.6-7.9 13.8-15.5 27s-14.3 24.9-14.9 26c-.6 1.1-1.6 2.7-2.2 3.5-.7.8-2.4 3.7-3.9 6.5-1.4 2.7-3.7 6.8-5.1 9-1.3 2.2-3 5.1-3.7 6.5-.6 1.4-3.3 6-5.9 10.3-2.7 4.3-4.8 8-4.8 8.1 0 .2-3 5.5-6.6 11.7-9.3 15.9-25.3 43.7-27.6 47.9-1.1 1.9-2.5 4-3.1 4.7-.9.9-7.4-6.3-27.7-30.4-14.6-17.4-27.3-32.5-28.3-33.5s-1.5-2.4-1.1-3c.9-1.4 65.2-92 91-128 3.8-5.4 10.7-15.2 15.4-21.8 4.7-6.6 10.6-15 13.2-18.6 2.6-3.6 6.3-8.8 8.3-11.5l3.5-5 17.5 29c9.7 16 17.8 29.7 18.1 30.6zm-360.8 46c10.1 17.6 19.2 33.3 20.2 35 .9 1.6 8.4 14.5 16.5 28.5s18.7 32.2 23.4 40.5c28.7 49.5 38.5 66.3 40.2 68.4 1.5 1.9 3 2.4 6.5 2.5 4.3 0 4.9-.3 9.7-5.5 2.9-3.1 9.3-10.4 14.2-16.3 5-6 9.7-11.6 10.5-12.6.8-.9 9.6-11.4 19.5-23.2 9.9-11.9 18.4-21.4 19-21.1.5.2 2.7 2.5 4.7 5.1 2.1 2.6 4.9 6 6.3 7.7 1.5 1.6 3.4 3.9 4.3 5 11.8 14.1 16.8 20.1 17.2 20.5.3.3 3.9 4.5 7.9 9.5 4.1 4.9 8.1 9.7 8.8 10.5.7.8 3 3.5 5.1 6 8.7 10.5 12.6 14 16.4 14.5 2.5.4 4.5.1 6.2-1 2.1-1.4 14.2-21.5 33.4-55.5 1.1-1.9 6.1-10.7 11.2-19.5 5-8.8 10.2-17.8 11.5-20 1.2-2.2 12.7-22.2 25.5-44.5s26.6-46.5 30.7-53.8c4.4-7.6 8.1-13.2 9-13.2.8 0 5.1.9 9.6 2.1 4.5 1.1 8.9 2.2 9.7 2.4.8.2 10.5 2.6 21.5 5.4 11 2.8 20.9 5.3 22 5.6 1.1.2 7.4 1.8 14 3.5 13.3 3.5 14.5 3.8 16.2 3.9 1.5.1 2.1 3.3 2.8 15.5 1.1 16.7.5 43.4-1 51.6-.3 1.4-.7 5-1.1 8-.3 3-1 7.7-1.5 10.5-.5 2.7-1.2 6.6-1.5 8.5-1 6.1-6.2 25.2-9.7 35.5-9.8 28.8-22.8 53.9-41.6 80-1.9 2.7-4 5.5-4.6 6.2-.5.6-3.2 3.9-6 7.4-12.9 16.2-37.5 39.2-56 52.5-7.8 5.6-21.3 14.4-22.1 14.4-.2 0-2.3 1.2-4.6 2.6-6.4 4-22.8 12-34.7 16.9-25.6 10.5-53.2 17.3-81.6 20.3-9.1.9-48.1.9-56.5 0-17.5-2-23.6-3-38-6.4-35.2-8.2-66.4-21.8-96.5-41.9-58.9-39.4-101.4-97.8-121-166.3-1.9-6.8-3.7-13.6-4-15-.3-1.5-.7-3.8-1-5.2-2.5-12.1-4.3-25.2-5.2-37.5-1.3-17.8-.5-51.2 1.3-55.9.3-.9 2.2-2 4.3-2.5 4.6-1.3 28.1-7.2 30.1-7.6 5.6-1.3 27-6.7 29.5-7.4 3.7-1.2 11.3-3.2 14-3.7 1.1-.2 4.3-1.1 7-1.8 9.4-2.7 7.8-4.5 28.3 30.9z"/></svg>